<?xml version="1.0" encoding="UTF-8" standalone="no"?>
<svg
   xmlns:dc="http://purl.org/dc/elements/1.1/"
   xmlns:cc="http://creativecommons.org/ns#"
   xmlns:rdf="http://www.w3.org/1999/02/22-rdf-syntax-ns#"
   xmlns:svg="http://www.w3.org/2000/svg"
   xmlns="http://www.w3.org/2000/svg"
   id="svg44"
   xml:space="preserve"
   viewBox="0 0 1024 768"
   y="0px"
   x="0px"
   version="1.1"><metadata
     id="metadata50"><rdf:RDF><cc:Work
         rdf:about=""><dc:format>image/svg+xml</dc:format><dc:type
           rdf:resource="http://purl.org/dc/dcmitype/StillImage" /></cc:Work></rdf:RDF></metadata><defs
     id="defs48" /><style
     id="style2">
#fadein{
opacity: 0;
animation:fadeIn 1s ease-in infinite;
animation-fill-mode:forwards;
}

@keyframes fadeIn { from { opacity:0; } to { opacity:1; } }
</style><g
     style="opacity:0"
     id="fadein"><g
       transform="translate(5e-6,-4.6938)"
       id="logo-group"><path
         stroke-miterlimit="2"
         d="m 215.19,497.8 h 17.504 v 2.816 h -7.232 V 520.2 h -3.072 v -19.584 h -7.2 z"
         style="font-variant-ligatures:none;fill:#00d5ff;stroke-width:0;stroke-miterlimit:2"
         id="path623823" /><path
         stroke-miterlimit="2"
         d="m 236.19,497.8 h 15.552 v 2.784 h -12.48 v 6.912 h 11.168 v 2.784 h -11.168 v 7.136 h 12.864 V 520.2 H 236.19 Z"
         style="font-variant-ligatures:none;fill:#00d5ff;stroke-width:0;stroke-miterlimit:2"
         id="path623825" /><path
         stroke-miterlimit="2"
         d="m 273.29,503.17 q -1.28,-1.344 -2.976,-2.08 -1.696,-0.768 -3.488,-0.768 -2.368,0 -4.352,1.152 -1.984,1.152 -3.136,3.136 -1.152,1.952 -1.152,4.32 0,2.336 1.152,4.32 1.152,1.984 3.136,3.136 1.984,1.152 4.352,1.152 1.76,0 3.456,-0.704 1.696,-0.736 3.008,-1.984 l 1.856,2.016 q -1.696,1.664 -3.936,2.624 -2.24,0.928 -4.544,0.928 -3.2,0 -5.856,-1.504 -2.656,-1.536 -4.192,-4.16 -1.536,-2.624 -1.536,-5.792 0,-3.136 1.536,-5.728 1.568,-2.624 4.256,-4.128 2.688,-1.504 5.92,-1.504 2.336,0 4.512,0.896 2.208,0.864 3.808,2.464 z"
         style="font-variant-ligatures:none;fill:#00d5ff;stroke-width:0;stroke-miterlimit:2"
         id="path623827" /><path
         stroke-miterlimit="2"
         d="m 279.44,497.8 h 3.072 v 9.984 h 12.8 V 497.8 h 3.104 v 22.4 h -3.104 v -9.632 h -12.8 v 9.632 h -3.072 z"
         style="font-variant-ligatures:none;fill:#00d5ff;stroke-width:0;stroke-miterlimit:2"
         id="path623829" /><path
         stroke-miterlimit="2"
         d="m 320.75,497.8 h 3.04 v 22.4 h -3.104 l -12.8,-17.344 V 520.2 h -3.072 v -22.4 h 3.104 l 12.832,17.376 z"
         style="font-variant-ligatures:none;fill:#00d5ff;stroke-width:0;stroke-miterlimit:2"
         id="path623831" /><path
         stroke-miterlimit="2"
         d="m 340.05,497.6 q 3.232,0 5.92,1.504 2.72,1.504 4.288,4.128 1.568,2.592 1.568,5.728 0,3.136 -1.568,5.792 -1.568,2.624 -4.288,4.16 -2.688,1.504 -5.92,1.504 -3.232,0 -5.952,-1.504 -2.688,-1.536 -4.256,-4.16 -1.568,-2.656 -1.568,-5.792 0,-3.136 1.568,-5.728 1.568,-2.624 4.256,-4.128 2.688,-1.504 5.952,-1.504 z m 0.032,2.752 q -2.336,0 -4.352,1.152 -1.984,1.152 -3.168,3.136 -1.184,1.952 -1.184,4.32 0,2.368 1.184,4.352 1.184,1.984 3.168,3.168 2.016,1.152 4.352,1.152 2.336,0 4.288,-1.152 1.984,-1.184 3.136,-3.168 1.184,-1.984 1.184,-4.352 0,-2.368 -1.184,-4.32 -1.152,-1.984 -3.136,-3.136 -1.952,-1.152 -4.288,-1.152 z"
         style="font-variant-ligatures:none;fill:#00d5ff;stroke-width:0;stroke-miterlimit:2"
         id="path623833" /><path
         stroke-miterlimit="2"
         d="m 356.25,497.8 h 3.072 v 19.616 h 9.792 V 520.2 H 356.25 Z"
         style="font-variant-ligatures:none;fill:#00d5ff;stroke-width:0;stroke-miterlimit:2"
         id="path623835" /><path
         stroke-miterlimit="2"
         d="m 382.8,497.6 q 3.232,0 5.92,1.504 2.72,1.504 4.288,4.128 1.568,2.592 1.568,5.728 0,3.136 -1.568,5.792 -1.568,2.624 -4.288,4.16 -2.688,1.504 -5.92,1.504 -3.232,0 -5.952,-1.504 -2.688,-1.536 -4.256,-4.16 -1.568,-2.656 -1.568,-5.792 0,-3.136 1.568,-5.728 1.568,-2.624 4.256,-4.128 2.688,-1.504 5.952,-1.504 z m 0.032,2.752 q -2.336,0 -4.352,1.152 -1.984,1.152 -3.168,3.136 -1.184,1.952 -1.184,4.32 0,2.368 1.184,4.352 1.184,1.984 3.168,3.168 2.016,1.152 4.352,1.152 2.336,0 4.288,-1.152 1.984,-1.184 3.136,-3.168 1.184,-1.984 1.184,-4.352 0,-2.368 -1.184,-4.32 -1.152,-1.984 -3.136,-3.136 -1.952,-1.152 -4.288,-1.152 z"
         style="font-variant-ligatures:none;fill:#00d5ff;stroke-width:0;stroke-miterlimit:2"
         id="path623837" /><path
         stroke-miterlimit="2"
         d="m 413.8,509.25 h 2.72 v 8.224 q -1.696,1.344 -3.968,2.144 -2.272,0.8 -4.512,0.8 -3.232,0 -5.92,-1.504 -2.688,-1.536 -4.256,-4.16 -1.536,-2.656 -1.536,-5.792 0,-3.136 1.568,-5.728 1.568,-2.624 4.288,-4.128 2.72,-1.504 6.016,-1.504 2.336,0 4.544,0.832 2.24,0.832 3.872,2.272 l -1.76,2.24 q -1.344,-1.248 -3.104,-1.92 -1.728,-0.704 -3.552,-0.704 -2.4,0 -4.416,1.152 -2.016,1.152 -3.2,3.136 -1.152,1.984 -1.152,4.352 0,2.368 1.184,4.384 1.184,1.984 3.2,3.168 2.016,1.152 4.416,1.152 1.408,0 2.848,-0.448 1.472,-0.48 2.72,-1.312 z"
         style="font-variant-ligatures:none;fill:#00d5ff;stroke-width:0;stroke-miterlimit:2"
         id="path623839" /><path
         stroke-miterlimit="2"
         d="m 439.24,497.8 -8.384,14.72 v 7.68 h -3.072 v -7.552 L 419.272,497.8 h 3.136 l 6.912,11.424 6.784,-11.424 z"
         style="font-variant-ligatures:none;fill:#00d5ff;stroke-width:0;stroke-miterlimit:2"
         id="path623841" /><path
         stroke-miterlimit="2"
         d="m 442.69,516.9 q 0.704,0 1.184,0.48 0.512,0.48 0.512,1.28 0,0.352 -0.16,0.736 -0.128,0.384 -0.288,0.736 l -1.728,3.648 h -1.632 l 1.28,-3.616 q -0.448,-0.224 -0.672,-0.608 -0.224,-0.416 -0.224,-0.896 0,-0.768 0.48,-1.248 0.512,-0.512 1.248,-0.512 z"
         style="font-variant-ligatures:none;fill:#00d5ff;stroke-width:0;stroke-miterlimit:2"
         id="path623843" /><path
         stroke-miterlimit="2"
         d="m 454.56,497.8 h 17.504 v 2.816 h -7.232 V 520.2 h -3.072 v -19.584 h -7.2 z"
         style="font-variant-ligatures:none;fill:#00d5ff;stroke-width:0;stroke-miterlimit:2"
         id="path623845" /><path
         stroke-miterlimit="2"
         d="m 483.92,497.6 q 3.232,0 5.92,1.504 2.72,1.504 4.288,4.128 1.568,2.592 1.568,5.728 0,3.136 -1.568,5.792 -1.568,2.624 -4.288,4.16 -2.688,1.504 -5.92,1.504 -3.232,0 -5.952,-1.504 -2.688,-1.536 -4.256,-4.16 -1.568,-2.656 -1.568,-5.792 0,-3.136 1.568,-5.728 1.568,-2.624 4.256,-4.128 2.688,-1.504 5.952,-1.504 z m 0.032,2.752 q -2.336,0 -4.352,1.152 -1.984,1.152 -3.168,3.136 -1.184,1.952 -1.184,4.32 0,2.368 1.184,4.352 1.184,1.984 3.168,3.168 2.016,1.152 4.352,1.152 2.336,0 4.288,-1.152 1.984,-1.184 3.136,-3.168 1.184,-1.984 1.184,-4.352 0,-2.368 -1.184,-4.32 -1.152,-1.984 -3.136,-3.136 -1.952,-1.152 -4.288,-1.152 z"
         style="font-variant-ligatures:none;fill:#00d5ff;stroke-width:0;stroke-miterlimit:2"
         id="path623847" /><path
         stroke-miterlimit="2"
         d="m 509.23,497.6 q 3.232,0 5.92,1.504 2.72,1.504 4.288,4.128 1.568,2.592 1.568,5.728 0,3.136 -1.568,5.792 -1.568,2.624 -4.288,4.16 -2.688,1.504 -5.92,1.504 -3.232,0 -5.952,-1.504 -2.688,-1.536 -4.256,-4.16 -1.568,-2.656 -1.568,-5.792 0,-3.136 1.568,-5.728 1.568,-2.624 4.256,-4.128 2.688,-1.504 5.952,-1.504 z m 0.032,2.752 q -2.336,0 -4.352,1.152 -1.984,1.152 -3.168,3.136 -1.184,1.952 -1.184,4.32 0,2.368 1.184,4.352 1.184,1.984 3.168,3.168 2.016,1.152 4.352,1.152 2.336,0 4.288,-1.152 1.984,-1.184 3.136,-3.168 1.184,-1.984 1.184,-4.352 0,-2.368 -1.184,-4.32 -1.152,-1.984 -3.136,-3.136 -1.952,-1.152 -4.288,-1.152 z"
         style="font-variant-ligatures:none;fill:#00d5ff;stroke-width:0;stroke-miterlimit:2"
         id="path623849" /><path
         stroke-miterlimit="2"
         d="m 525.44,497.8 h 3.072 v 19.616 h 9.792 V 520.2 H 525.44 Z"
         style="font-variant-ligatures:none;fill:#00d5ff;stroke-width:0;stroke-miterlimit:2"
         id="path623851" /><path
         stroke-miterlimit="2"
         d="m 555.28,502.47 q -1.568,-0.992 -3.264,-1.472 -1.664,-0.512 -3.072,-0.512 -1.952,0 -3.136,0.768 -1.152,0.736 -1.152,2.048 0,1.184 0.704,1.952 0.704,0.736 1.728,1.184 1.024,0.416 2.848,0.992 2.272,0.704 3.68,1.344 1.408,0.64 2.4,1.92 0.992,1.248 0.992,3.328 0,1.92 -1.056,3.36 -1.024,1.44 -2.912,2.24 -1.856,0.768 -4.288,0.768 -2.464,0 -4.8,-0.96 -2.336,-0.96 -4.032,-2.56 l 1.376,-2.656 q 1.6,1.568 3.584,2.432 2.016,0.832 3.904,0.832 2.24,0 3.52,-0.864 1.312,-0.896 1.312,-2.4 0,-1.184 -0.704,-1.952 -0.704,-0.768 -1.792,-1.216 -1.056,-0.448 -2.88,-0.992 -2.24,-0.672 -3.648,-1.312 -1.408,-0.64 -2.4,-1.888 -0.96,-1.248 -0.96,-3.296 0,-1.792 0.992,-3.168 0.992,-1.376 2.784,-2.112 1.792,-0.736 4.16,-0.736 2.016,0 3.936,0.608 1.952,0.576 3.456,1.568 z"
         style="font-variant-ligatures:none;fill:#00d5ff;stroke-width:0;stroke-miterlimit:2"
         id="path623853" /><path
         stroke-miterlimit="2"
         d="m 586.22,520.68 -3.648,-3.584 q -1.504,1.568 -3.264,2.4 -1.728,0.832 -3.584,0.832 -1.888,0 -3.456,-0.8 -1.568,-0.8 -2.496,-2.208 -0.896,-1.44 -0.896,-3.2 0,-2.176 1.312,-3.584 1.344,-1.44 3.68,-2.688 -1.152,-1.504 -1.696,-2.752 -0.544,-1.28 -0.544,-2.496 0,-2.176 1.568,-3.552 1.568,-1.376 4.064,-1.376 2.4,0 3.904,1.28 1.504,1.28 1.504,3.296 0,1.44 -0.768,2.56 -0.736,1.088 -1.888,1.888 -1.12,0.768 -2.848,1.664 1.6,1.856 5.152,5.376 1.28,-1.952 2.144,-4.224 l 1.984,1.472 q -0.992,2.368 -2.432,4.416 l 3.776,3.68 z m -12.16,-18.112 q 0,1.76 1.824,4.256 2.144,-1.12 3.232,-2.112 1.12,-0.992 1.12,-2.432 0,-1.216 -0.8,-1.952 -0.8,-0.736 -2.144,-0.736 -1.472,0 -2.368,0.864 -0.864,0.832 -0.864,2.112 z m 1.76,15.456 q 2.656,0 5.12,-2.56 -3.776,-3.744 -5.792,-6.048 -1.792,0.992 -2.784,2.048 -0.96,1.056 -0.96,2.464 0,1.792 1.28,2.944 1.28,1.152 3.136,1.152 z"
         style="font-variant-ligatures:none;fill:#00d5ff;stroke-width:0;stroke-miterlimit:2"
         id="path623855" /><path
         stroke-miterlimit="2"
         d="m 618.35,520.2 h -3.712 l -7.872,-10.336 -4.128,4.48 v 5.856 h -3.072 v -22.4 h 3.072 v 12.576 L 614.094,497.8 h 3.68 l -8.864,9.664 z"
         style="font-variant-ligatures:none;fill:#00d5ff;stroke-width:0;stroke-miterlimit:2"
         id="path623857" /><path
         stroke-miterlimit="2"
         d="m 638.13,497.8 h 3.04 v 22.4 h -3.104 l -12.8,-17.344 V 520.2 h -3.072 v -22.4 h 3.104 l 12.832,17.376 z"
         style="font-variant-ligatures:none;fill:#00d5ff;stroke-width:0;stroke-miterlimit:2"
         id="path623859" /><path
         stroke-miterlimit="2"
         d="m 657.42,497.6 q 3.232,0 5.92,1.504 2.72,1.504 4.288,4.128 1.568,2.592 1.568,5.728 0,3.136 -1.568,5.792 -1.568,2.624 -4.288,4.16 -2.688,1.504 -5.92,1.504 -3.232,0 -5.952,-1.504 -2.688,-1.536 -4.256,-4.16 -1.568,-2.656 -1.568,-5.792 0,-3.136 1.568,-5.728 1.568,-2.624 4.256,-4.128 2.688,-1.504 5.952,-1.504 z m 0.032,2.752 q -2.336,0 -4.352,1.152 -1.984,1.152 -3.168,3.136 -1.184,1.952 -1.184,4.32 0,2.368 1.184,4.352 1.184,1.984 3.168,3.168 2.016,1.152 4.352,1.152 2.336,0 4.288,-1.152 1.984,-1.184 3.136,-3.168 1.184,-1.984 1.184,-4.352 0,-2.368 -1.184,-4.32 -1.152,-1.984 -3.136,-3.136 -1.952,-1.152 -4.288,-1.152 z"
         style="font-variant-ligatures:none;fill:#00d5ff;stroke-width:0;stroke-miterlimit:2"
         id="path623861" /><path
         stroke-miterlimit="2"
         d="m 700.26,497.8 h 3.2 l -7.584,22.4 h -3.2 l -5.792,-18.496 -5.888,18.496 h -3.168 l -7.552,-22.4 h 3.296 l 5.92,19.104 5.888,-19.104 h 3.072 l 5.92,19.104 z"
         style="font-variant-ligatures:none;fill:#00d5ff;stroke-width:0;stroke-miterlimit:2"
         id="path623863" /><path
         stroke-miterlimit="2"
         d="m 706.82,497.8 h 3.072 v 19.616 h 9.792 V 520.2 H 706.82 Z"
         style="font-variant-ligatures:none;fill:#00d5ff;stroke-width:0;stroke-miterlimit:2"
         id="path623865" /><path
         stroke-miterlimit="2"
         d="m 723.57,497.8 h 15.552 v 2.784 h -12.48 v 6.912 h 11.168 v 2.784 h -11.168 v 7.136 h 12.864 V 520.2 H 723.57 Z"
         style="font-variant-ligatures:none;fill:#00d5ff;stroke-width:0;stroke-miterlimit:2"
         id="path623867" /><path
         stroke-miterlimit="2"
         d="m 753.56,497.8 q 3.264,0 5.888,1.472 2.656,1.44 4.16,4 1.504,2.56 1.504,5.728 0,3.168 -1.536,5.728 -1.504,2.56 -4.16,4.032 -2.656,1.44 -5.952,1.44 h -9.024 v -22.4 z m 0.064,19.616 q 2.336,0 4.224,-1.088 1.92,-1.088 3.008,-3.008 1.12,-1.92 1.12,-4.288 0,-2.4 -1.12,-4.32 -1.12,-1.92 -3.072,-3.008 -1.92,-1.12 -4.288,-1.12 h -5.984 v 16.832 z"
         style="font-variant-ligatures:none;fill:#00d5ff;stroke-width:0;stroke-miterlimit:2"
         id="path623869" /><path
         stroke-miterlimit="2"
         d="m 784.3,509.25 h 2.72 v 8.224 q -1.696,1.344 -3.968,2.144 -2.272,0.8 -4.512,0.8 -3.232,0 -5.92,-1.504 -2.688,-1.536 -4.256,-4.16 -1.536,-2.656 -1.536,-5.792 0,-3.136 1.568,-5.728 1.568,-2.624 4.288,-4.128 2.72,-1.504 6.016,-1.504 2.336,0 4.544,0.832 2.24,0.832 3.872,2.272 l -1.76,2.24 q -1.344,-1.248 -3.104,-1.92 -1.728,-0.704 -3.552,-0.704 -2.4,0 -4.416,1.152 -2.016,1.152 -3.2,3.136 -1.152,1.984 -1.152,4.352 0,2.368 1.184,4.384 1.184,1.984 3.2,3.168 2.016,1.152 4.416,1.152 1.408,0 2.848,-0.448 1.472,-0.48 2.72,-1.312 z"
         style="font-variant-ligatures:none;fill:#00d5ff;stroke-width:0;stroke-miterlimit:2"
         id="path623871" /><path
         stroke-miterlimit="2"
         d="m 792.88,497.8 h 15.552 v 2.784 h -12.48 v 6.912 h 11.168 v 2.784 h -11.168 v 7.136 h 12.864 V 520.2 H 792.88 Z"
         style="font-variant-ligatures:none;fill:#00d5ff;stroke-width:0;stroke-miterlimit:2"
         id="path623873" /><path
         stroke-miterlimit="2"
         d="m 132.21,413.48 v 63 h 17.82 v -63 z"
         style="font-variant-ligatures:none;fill:#0082fe;stroke-width:0;stroke-miterlimit:2"
         id="path623876" /><path
         stroke-miterlimit="2"
         d="m 232.87,428.33 c -2.97,-4.68 -7.11,-8.37 -12.42,-10.98 -5.4,-2.52 -11.52,-3.87 -18.36,-3.87 H 172.3 v 14.22 h 29.07 c 5.4,0 9.72,1.53 12.96,4.59 3.24,3.15 4.95,7.38 4.95,12.69 0,5.4 -1.71,9.63 -4.95,12.69 -3.24,3.06 -7.56,4.59 -12.96,4.59 H 190.12 V 445.52 H 172.3 v 30.96 h 29.79 c 6.84,0 12.96,-1.26 18.36,-3.87 5.31,-2.52 9.45,-6.21 12.42,-10.98 2.88,-4.68 4.41,-10.26 4.41,-16.65 0,-6.3 -1.53,-11.88 -4.41,-16.65 z"
         style="font-variant-ligatures:none;fill:#0093fe;stroke-width:0;stroke-miterlimit:2"
         id="path623878" /><path
         stroke-miterlimit="2"
         d="m 306.11,413.48 h -49.95 v 13.77 h 49.95 z m 0,24.39 h -49.95 v 13.32 h 49.95 z m -49.95,24.84 v 13.77 h 49.95 v -13.77 z"
         style="font-variant-ligatures:none;fill:#00a3fe;stroke-width:0;stroke-miterlimit:2"
         id="path623880" /><path
         stroke-miterlimit="2"
         d="m 363.83,413.48 h -17.55 l -27.81,63 h 18.18 l 4.95,-12.24 5.22,-13.14 8.1,-20.16 8.1,20.16 5.22,13.14 4.95,12.24 h 18.54 z"
         style="font-variant-ligatures:none;fill:#00b4ff;stroke-width:0;stroke-miterlimit:2"
         id="path623882" /><path
         stroke-miterlimit="2"
         d="m 413.58,475.85 c 4.77,1.26 9.72,1.89 14.85,1.89 5.94,0 11.07,-0.9 15.3,-2.7 4.14,-1.8 7.29,-4.32 9.45,-7.38 2.07,-3.06 3.15,-6.48 3.15,-10.26 0,-4.32 -1.17,-7.83 -3.51,-10.35 -2.34,-2.52 -5.04,-4.41 -8.19,-5.58 -3.15,-1.17 -7.11,-2.25 -11.88,-3.33 -4.32,-0.9 -7.38,-1.71 -9.27,-2.61 -1.98,-0.81 -2.88,-2.07 -2.88,-3.78 0,-1.62 0.81,-2.97 2.43,-4.05 1.62,-1.08 4.14,-1.62 7.74,-1.62 5.58,0 11.43,1.62 17.46,4.86 l 5.49,-13.23 c -3.06,-1.8 -6.66,-3.15 -10.62,-4.05 -4.05,-0.9 -8.1,-1.44 -12.24,-1.44 -6.12,0 -11.25,0.9 -15.39,2.7 -4.14,1.8 -7.29,4.32 -9.36,7.38 -2.16,3.06 -3.15,6.57 -3.15,10.35 0,4.41 1.08,7.92 3.42,10.44 2.25,2.61 4.95,4.5 8.19,5.67 3.15,1.17 7.11,2.25 11.88,3.24 4.32,0.99 7.38,1.89 9.36,2.79 1.98,0.9 2.97,2.16 2.97,3.96 0,3.42 -3.42,5.13 -10.26,5.13 -3.6,0 -7.29,-0.54 -10.98,-1.71 -3.78,-1.08 -7.02,-2.61 -9.81,-4.5 l -5.85,13.14 c 2.97,2.16 6.84,3.78 11.7,5.04 z"
         style="font-variant-ligatures:none;fill:#00c4ff;stroke-width:0;stroke-miterlimit:2"
         id="path623884" /><path
         stroke-miterlimit="2"
         d="m 506.32,453.89 24.12,-40.41 h -17.28 l -14.94,25.02 -14.94,-25.02 h -18.81 l 24.03,40.14 v 22.86 h 17.82 z"
         style="font-variant-ligatures:none;fill:#00d5ff;stroke-width:0;stroke-miterlimit:2"
         id="path623886" /><path
         stroke-miterlimit="2"
         d="m 550.35,475.85 c 4.77,1.26 9.72,1.89 14.85,1.89 5.94,0 11.07,-0.9 15.3,-2.7 4.14,-1.8 7.29,-4.32 9.45,-7.38 2.07,-3.06 3.15,-6.48 3.15,-10.26 0,-4.32 -1.17,-7.83 -3.51,-10.35 -2.34,-2.52 -5.04,-4.41 -8.19,-5.58 -3.15,-1.17 -7.11,-2.25 -11.88,-3.33 -4.32,-0.9 -7.38,-1.71 -9.27,-2.61 -1.98,-0.81 -2.88,-2.07 -2.88,-3.78 0,-1.62 0.81,-2.97 2.43,-4.05 1.62,-1.08 4.14,-1.62 7.74,-1.62 5.58,0 11.43,1.62 17.46,4.86 l 5.49,-13.23 c -3.06,-1.8 -6.66,-3.15 -10.62,-4.05 -4.05,-0.9 -8.1,-1.44 -12.24,-1.44 -6.12,0 -11.25,0.9 -15.39,2.7 -4.14,1.8 -7.29,4.32 -9.36,7.38 -2.16,3.06 -3.15,6.57 -3.15,10.35 0,4.41 1.08,7.92 3.42,10.44 2.25,2.61 4.95,4.5 8.19,5.67 3.15,1.17 7.11,2.25 11.88,3.24 4.32,0.99 7.38,1.89 9.36,2.79 1.98,0.9 2.97,2.16 2.97,3.96 0,3.42 -3.42,5.13 -10.26,5.13 -3.6,0 -7.29,-0.54 -10.98,-1.71 -3.78,-1.08 -7.02,-2.61 -9.81,-4.5 l -5.85,13.14 c 2.97,2.16 6.84,3.78 11.7,5.04 z"
         style="font-variant-ligatures:none;fill:#00d5ff;stroke-width:0;stroke-miterlimit:2"
         id="path623888" /><path
         stroke-miterlimit="2"
         d="m 623.28,427.61 v 48.87 h 17.82 v -48.87 h 19.26 v -14.13 h -56.43 v 14.13 z"
         style="font-variant-ligatures:none;fill:#00d5ff;stroke-width:0;stroke-miterlimit:2"
         id="path623890" /><path
         stroke-miterlimit="2"
         d="M 726.45,413.48 H 676.5 v 13.77 h 49.95 z m 0,24.39 H 676.5 v 13.32 h 49.95 z m -49.95,24.84 v 13.77 h 49.95 v -13.77 z"
         style="font-variant-ligatures:none;fill:#00c2ff;stroke-width:0;stroke-miterlimit:2"
         id="path623892" /><path
         stroke-miterlimit="2"
         d="m 819.54,437.51 -16.29,29.16 0.09,9.81 h 16.38 z m -73.08,38.97 h 16.47 v -8.73 l -16.47,-29.43 z m 58.41,-63 -21.6,36.36 -22.14,-36.36 h -14.67 l 16.47,30.51 16.11,26.28 h 7.92 l 16.2,-27.18 15.93,-29.61 z"
         style="font-variant-ligatures:none;fill:#00a2fe;stroke-width:0;stroke-miterlimit:2"
         id="path623894" /><path
         stroke-miterlimit="2"
         d="m 849.04,475.85 c 4.77,1.26 9.72,1.89 14.85,1.89 5.94,0 11.07,-0.9 15.3,-2.7 4.14,-1.8 7.29,-4.32 9.45,-7.38 2.07,-3.06 3.15,-6.48 3.15,-10.26 0,-4.32 -1.17,-7.83 -3.51,-10.35 -2.34,-2.52 -5.04,-4.41 -8.19,-5.58 -3.15,-1.17 -7.11,-2.25 -11.88,-3.33 -4.32,-0.9 -7.38,-1.71 -9.27,-2.61 -1.98,-0.81 -2.88,-2.07 -2.88,-3.78 0,-1.62 0.81,-2.97 2.43,-4.05 1.62,-1.08 4.14,-1.62 7.74,-1.62 5.58,0 11.43,1.62 17.46,4.86 l 5.49,-13.23 c -3.06,-1.8 -6.66,-3.15 -10.62,-4.05 -4.05,-0.9 -8.1,-1.44 -12.24,-1.44 -6.12,0 -11.25,0.9 -15.39,2.7 -4.14,1.8 -7.29,4.32 -9.36,7.38 -2.16,3.06 -3.15,6.57 -3.15,10.35 0,4.41 1.08,7.92 3.42,10.44 2.25,2.61 4.95,4.5 8.19,5.67 3.15,1.17 7.11,2.25 11.88,3.24 4.32,0.99 7.38,1.89 9.36,2.79 1.98,0.9 2.97,2.16 2.97,3.96 0,3.42 -3.42,5.13 -10.26,5.13 -3.6,0 -7.29,-0.54 -10.98,-1.71 -3.78,-1.08 -7.02,-2.61 -9.81,-4.5 l -5.85,13.14 c 2.97,2.16 6.84,3.78 11.7,5.04 z"
         style="font-variant-ligatures:none;fill:#0082fe;stroke-width:0;stroke-miterlimit:2"
         id="path623896" /><path
         style="fill:#00d5ff;stroke-width:0.75"
         d="m 497.54,253.61 c -0.004,8.2e-4 -7.5232,4.3414 -16.708,9.6458 l -16.701,9.6442 -0.0208,8.9985 -0.0208,8.9985 -8.757,5.0566 -8.757,5.0561 v 38.644 l 8.757,5.0561 8.757,5.0561 0.0208,7.827 0.0208,7.8278 16.709,9.6465 16.709,9.6472 7.1795,-4.1529 c 3.9486,-2.2839 7.2191,-4.1713 7.2683,-4.1933 0.0763,-0.035 1.1347,0.56421 7.3392,4.1529 l 7.2496,4.1933 8.6797,-5.011 c 4.7738,-2.7564 10.509,-6.0678 12.746,-7.3584 2.2364,-1.2906 5.8484,-3.376 8.0273,-4.6341 l 3.9615,-2.2876 0.0104,-7.821 0.0109,-7.821 8.7758,-5.062 8.7765,-5.0623 -0.009,-19.325 -0.009,-19.324 -8.757,-5.0561 -8.757,-5.0561 -0.03,-8.9978 -0.0225,-8.9985 -16.702,-9.6458 -16.71,-9.6442 -7.2095,4.1563 c -3.9652,2.286 -7.2404,4.1646 -7.2783,4.1746 -0.0396,0.0104 -3.1508,-1.7581 -7.3104,-4.1554 -3.9828,-2.2956 -7.2449,-4.1733 -7.2496,-4.1725 z m 8.2e-4,6.6311 c 0.0279,-0.001 2.6596,1.502 5.8484,3.3402 l 5.798,3.3422 v 24.152 c 0,13.284 -0.0125,24.859 -0.0275,25.723 l -0.0275,1.5704 h -2.0366 c -1.12,0 -2.0366,-0.0158 -2.0366,-0.0354 0,-0.0196 -0.15137,-0.19766 -0.33652,-0.39532 -0.18514,-0.19765 -0.48747,-0.47329 -0.67179,-0.61216 -0.18375,-0.13799 -0.525,-0.34425 -0.7575,-0.45675 -0.2325,-0.1125 -0.5445,-0.24224 -0.69375,-0.28949 -0.14925,-0.0465 -0.438,-0.11325 -0.64125,-0.14851 -0.204,-0.0345 -0.57225,-0.063 -0.81825,-0.063 -0.24645,0 -0.61424,0.0292 -0.81772,0.0646 -0.20391,0.0354 -0.53919,0.12093 -0.74601,0.18973 -0.20642,0.0692 -0.51583,0.20142 -0.68805,0.29399 -0.17181,0.0926 -0.42785,0.2502 -0.56838,0.3507 -0.14094,0.1005 -0.36487,0.28147 -0.49748,0.40282 -0.13302,0.12093 -0.35028,0.35696 -0.4833,0.52417 -0.13344,0.16722 -0.31567,0.42993 -0.40532,0.5838 -0.0897,0.15387 -0.21184,0.39573 -0.27147,0.53793 -0.0592,0.14178 -0.15512,0.42034 -0.21267,0.61884 -0.0575,0.1989 -0.12677,0.57378 -0.15387,0.83317 -0.0375,0.35862 -0.0375,0.57712 -10e-4,0.91117 0.0263,0.24144 0.0797,0.5667 0.11843,0.72266 0.0388,0.15638 0.13886,0.45578 0.22309,0.66595 0.0838,0.21017 0.25437,0.54502 0.37905,0.74393 0.12427,0.19891 0.37614,0.52292 0.55962,0.72016 0.18348,0.19682 0.48372,0.47038 0.6672,0.60757 0.18348,0.13677 0.5421,0.34944 0.79687,0.47288 0.25479,0.12301 0.64886,0.2723 0.8757,0.33193 0.32151,0.0847 0.54836,0.113 1.0304,0.12968 0.3924,0.0134 0.73475,0.002 0.93825,-0.0304 0.17597,-0.0284 0.4758,-0.0968 0.66637,-0.15179 0.19015,-0.055 0.48205,-0.16472 0.64801,-0.24311 0.16597,-0.0788 0.45119,-0.2402 0.63384,-0.3582 0.20599,-0.13344 0.51708,-0.40283 0.8211,-0.71099 l 0.48872,-0.49665 h 4.047 l -0.0104,23.65 -0.0104,23.649 -5.7913,3.3514 c -3.1855,1.8431 -5.8084,3.351 -5.8288,3.351 -0.0208,0 -6.2671,-3.5966 -13.881,-7.9928 l -13.844,-7.992 0.0108,-6.0849 0.0104,-6.0849 2.0846,-0.99832 2.0846,-0.9987 0.32025,0.14637 c 0.17598,0.0805 0.47664,0.19182 0.66804,0.24728 0.19098,0.0554 0.53292,0.12385 0.7602,0.15262 0.24102,0.0304 0.58713,0.0417 0.83355,0.0275 0.23143,-0.0137 0.5592,-0.0538 0.72808,-0.0897 0.16847,-0.0358 0.44994,-0.11468 0.6255,-0.17472 0.17514,-0.0601 0.41241,-0.15597 0.52709,-0.21309 0.11467,-0.0571 0.3607,-0.20308 0.54669,-0.3236 0.18598,-0.12093 0.47371,-0.34735 0.63967,-0.50373 0.16555,-0.15596 0.41992,-0.44244 0.56504,-0.63592 0.14553,-0.19391 0.34944,-0.52292 0.45369,-0.73184 0.10425,-0.20892 0.23436,-0.52083 0.2894,-0.69264 0.055,-0.17222 0.12593,-0.4441 0.15804,-0.60465 0.0346,-0.17389 0.0575,-0.54501 0.0567,-0.9174 -8.2e-4,-0.34569 -0.0254,-0.73725 -0.055,-0.8757 -0.0292,-0.13761 -0.10133,-0.40032 -0.15971,-0.5838 -0.0588,-0.18348 -0.17848,-0.47955 -0.26688,-0.65802 -0.088,-0.17848 -0.24978,-0.45912 -0.35987,-0.62383 -0.10967,-0.16431 -0.34986,-0.45161 -0.53334,-0.63843 -0.18348,-0.18723 -0.47413,-0.43827 -0.64635,-0.55836 -0.17181,-0.12052 -0.45328,-0.28941 -0.6255,-0.37614 -0.17181,-0.0867 -0.45328,-0.20558 -0.6255,-0.26396 -0.17181,-0.0588 -0.46287,-0.13886 -0.64635,-0.17848 -0.22893,-0.0492 -0.52334,-0.0717 -0.93825,-0.0717 -0.41617,0 -0.70765,0.0225 -0.93495,0.0717 -0.18182,0.0396 -0.50916,0.13553 -0.72767,0.21393 -0.2185,0.078 -0.54835,0.22935 -0.73309,0.33652 -0.18473,0.10716 -0.43951,0.27396 -0.56628,0.37154 -0.12719,0.0972 -0.3899,0.34527 -0.5838,0.55086 -0.19433,0.20558 -0.45245,0.53334 -0.57338,0.72849 -0.12135,0.19516 -0.28564,0.515 -0.3657,0.71141 -0.0801,0.1964 -0.18265,0.50249 -0.2281,0.68012 -0.0455,0.17765 -0.0876,0.32568 -0.093,0.32902 -0.006,0.003 -1.0016,0.47913 -2.213,1.0583 l -2.2026,1.0521 -0.17431,-0.0976 c -0.0959,-0.0538 -3.4348,-1.9799 -7.4197,-4.2809 l -7.2454,-4.1834 v -12.25 h 3.8802 l 0.48872,0.49665 c 0.32735,0.33192 0.61174,0.57546 0.85943,0.73558 0.2035,0.13178 0.5225,0.30399 0.7089,0.38281 0.1864,0.0788 0.51708,0.19307 0.73475,0.25437 l 0.39615,0.11092 0.81315,-0.002 0.81315,-0.002 0.417,-0.11259 c 0.22935,-0.0621 0.62592,-0.21518 0.8811,-0.34028 0.2552,-0.1251 0.61174,-0.3386 0.7923,-0.47496 0.18056,-0.13636 0.45119,-0.37655 0.60173,-0.53376 0.15012,-0.15721 0.36071,-0.40908 0.46704,-0.55961 0.10676,-0.15054 0.26939,-0.42117 0.36154,-0.60131 0.0922,-0.18057 0.21476,-0.46997 0.2723,-0.64386 0.0571,-0.17346 0.13511,-0.45661 0.17264,-0.62841 0.0442,-0.201 0.0701,-0.52125 0.0721,-0.89655 0.002,-0.40074 -0.02,-0.69973 -0.0701,-0.9537 -0.0404,-0.2035 -0.12801,-0.51917 -0.19432,-0.7014 -0.0667,-0.18264 -0.20391,-0.48705 -0.30483,-0.67721 -0.10125,-0.17775 -0.26025,-0.43725 -0.354,-0.564 -0.0937,-0.12675 -0.2775,-0.34575 -0.408,-0.4875 -0.1305,-0.141 -0.399,-0.378 -0.59625,-0.5265 -0.19725,-0.14775 -0.501,-0.3435 -0.675,-0.43425 -0.174,-0.0907 -0.48375,-0.2205 -0.68775,-0.2895 -0.20475,-0.0683 -0.53925,-0.15375 -0.74325,-0.189 -0.20325,-0.0352 -0.58125,-0.0645 -0.83925,-0.0645 -0.25812,0 -0.62633,0.0292 -0.81818,0.0646 -0.19181,0.035 -0.49873,0.11259 -0.68221,0.1718 -0.18348,0.0592 -0.50207,0.1939 -0.70807,0.29941 -0.20599,0.10508 -0.51916,0.30024 -0.69556,0.43326 -0.1768,0.13302 -0.47246,0.40407 -0.6576,0.60173 -0.18515,0.19765 -0.33652,0.37572 -0.33652,0.39532 0,0.0196 -0.89115,0.0354 -1.9808,0.0354 h -1.9808 v -14.037 l 7.3654,-4.2509 c 4.0508,-2.3381 7.378,-4.2472 7.3942,-4.243 0.0159,0.005 1.0492,0.57254 2.296,1.2622 1.2464,0.68972 2.2735,1.261 2.2822,1.2698 0.008,0.008 0.05,0.1814 0.0922,0.38489 0.0421,0.20308 0.13428,0.52668 0.20517,0.7185 0.0705,0.19182 0.19641,0.47329 0.27981,0.6255 0.0834,0.1522 0.23769,0.39865 0.3436,0.54752 0.10551,0.14887 0.3336,0.41241 0.50624,0.58546 0.17305,0.17264 0.4366,0.40116 0.58546,0.50708 0.14929,0.10591 0.43994,0.27772 0.64635,0.38155 0.20642,0.10383 0.525,0.23727 0.70807,0.29691 0.18265,0.0596 0.50165,0.13552 0.7089,0.1693 0.20684,0.0334 0.55461,0.0609 0.77227,0.0609 0.2181,0 0.5738,-0.0288 0.79103,-0.0638 0.21726,-0.0354 0.56295,-0.12051 0.76815,-0.18931 0.20516,-0.0688 0.52417,-0.2035 0.70848,-0.29941 0.18473,-0.0959 0.47704,-0.27981 0.64969,-0.40866 0.17305,-0.12885 0.45536,-0.38281 0.62758,-0.5642 0.17264,-0.1814 0.40032,-0.46121 0.50624,-0.62175 0.10591,-0.16055 0.25145,-0.40949 0.32359,-0.55378 0.0722,-0.14386 0.18599,-0.42534 0.25312,-0.6255 0.0671,-0.20016 0.15095,-0.53042 0.1864,-0.73434 0.0354,-0.2035 0.0646,-0.56212 0.0646,-0.79687 0,-0.23478 -0.0288,-0.5934 -0.0638,-0.79733 -0.035,-0.2035 -0.11217,-0.52042 -0.17139,-0.7039 -0.0596,-0.18348 -0.18098,-0.48121 -0.27022,-0.66136 -0.0888,-0.18056 -0.25062,-0.46162 -0.35862,-0.62467 -0.10842,-0.16305 -0.34777,-0.44827 -0.53167,-0.63384 -0.18431,-0.18556 -0.47538,-0.4366 -0.64761,-0.55753 -0.1718,-0.12093 -0.45327,-0.29064 -0.6255,-0.37738 -0.1718,-0.0867 -0.45911,-0.20642 -0.63759,-0.26646 -0.17847,-0.0596 -0.48831,-0.13928 -0.68805,-0.17723 -0.21183,-0.04 -0.57171,-0.0688 -0.86362,-0.0684 -0.27522,0 -0.62508,0.0213 -0.77768,0.0467 -0.1522,0.0258 -0.42408,0.0913 -0.60465,0.14553 -0.18014,0.0542 -0.41283,0.13178 -0.51666,0.17222 l -0.18973,0.0742 -2.2706,-1.2548 -2.271,-1.2552 -0.0104,-7.3142 -0.0109,-7.3142 13.834,-7.9898 c 7.6088,-4.3942 13.857,-7.9905 13.885,-7.9912 z m 29.03,0.002 c 0.0313,-0.002 6.2846,3.592 13.897,7.9868 l 13.84,7.9905 -0.0109,7.3167 -0.0104,7.3167 -2.2689,1.2543 -2.2684,1.2548 -0.19182,-0.0751 c -0.10508,-0.0409 -0.3386,-0.11884 -0.51874,-0.17305 -0.18056,-0.0542 -0.45245,-0.11968 -0.60465,-0.14553 -0.15262,-0.0258 -0.51166,-0.0467 -0.79853,-0.0459 -0.36654,8.2e-4 -0.64968,0.0275 -0.95452,0.0905 -0.23811,0.0492 -0.58756,0.15095 -0.77685,0.22601 -0.18932,0.0751 -0.48789,0.21892 -0.66345,0.319 -0.17514,0.1005 -0.46913,0.30275 -0.65261,0.44994 -0.18389,0.14679 -0.44868,0.40032 -0.5888,0.56296 -0.14011,0.16305 -0.32818,0.40949 -0.41783,0.54793 -0.0897,0.13886 -0.22768,0.38781 -0.30649,0.55378 -0.0788,0.16554 -0.18807,0.43827 -0.2427,0.60548 -0.0546,0.16763 -0.12969,0.4808 -0.1668,0.69639 -0.0367,0.21559 -0.0671,0.58255 -0.0671,0.81525 0,0.23269 0.0304,0.60006 0.0676,0.81607 0.0371,0.21643 0.12344,0.55253 0.19182,0.74769 0.0684,0.19515 0.20142,0.50373 0.29607,0.68638 0.0947,0.18265 0.27731,0.47372 0.40617,0.64635 0.12885,0.17306 0.3828,0.45537 0.56419,0.62759 0.1814,0.17263 0.46496,0.40282 0.62967,0.51249 0.16472,0.10925 0.45578,0.2723 0.64635,0.36154 0.19099,0.0892 0.50833,0.20933 0.70598,0.26646 0.19725,0.0571 0.50332,0.12426 0.68013,0.14886 0.17723,0.0246 0.49373,0.0446 0.70431,0.0446 0.21059,-4.2e-4 0.55212,-0.0279 0.75893,-0.0613 0.20725,-0.0338 0.52167,-0.10842 0.69973,-0.16638 0.17764,-0.0584 0.4637,-0.17222 0.63509,-0.25395 0.1718,-0.0813 0.43868,-0.23394 0.59339,-0.33902 0.1547,-0.1055 0.39823,-0.29356 0.54126,-0.41825 0.14303,-0.12468 0.37864,-0.37488 0.52333,-0.55586 0.14471,-0.18098 0.34528,-0.47288 0.4462,-0.64886 0.10049,-0.17556 0.24728,-0.49081 0.3261,-0.69973 0.0788,-0.20933 0.17722,-0.54669 0.21933,-0.74977 0.0417,-0.20349 0.0822,-0.37572 0.0897,-0.38322 0.007,-0.007 1.0358,-0.58004 2.2852,-1.2718 1.2494,-0.69222 2.2906,-1.259 2.3135,-1.2593 0.0229,-4.2e-4 3.3489,1.909 7.3913,4.2438 l 7.3496,4.2451 v 14.039 h -1.9808 c -1.0892,0 -1.9808,-0.0158 -1.9808,-0.0354 0,-0.0196 -0.15137,-0.19766 -0.33652,-0.39532 -0.18515,-0.19765 -0.4808,-0.4687 -0.65761,-0.60173 -0.17639,-0.13302 -0.48956,-0.32818 -0.69556,-0.43326 -0.206,-0.1055 -0.49622,-0.23352 -0.64551,-0.28439 -0.14887,-0.0509 -0.45453,-0.12844 -0.67929,-0.1718 -0.25396,-0.0496 -0.58631,-0.0796 -0.88028,-0.0796 -0.2602,0 -0.63926,0.0292 -0.84277,0.0646 -0.20391,0.0355 -0.53918,0.12093 -0.74601,0.18974 -0.20642,0.0692 -0.51583,0.20141 -0.68805,0.29398 -0.17181,0.0926 -0.42785,0.2502 -0.56838,0.3507 -0.14094,0.1005 -0.36195,0.27939 -0.49163,0.39782 -0.12969,0.11842 -0.35404,0.36362 -0.49874,0.54418 -0.1447,0.18097 -0.3582,0.51166 -0.47371,0.73475 -0.11593,0.2231 -0.25729,0.5371 -0.31442,0.69764 -0.0571,0.16055 -0.13761,0.4512 -0.17889,0.64636 -0.0521,0.24602 -0.0751,0.53333 -0.0746,0.93825 4.2e-4,0.32108 0.0242,0.70556 0.0534,0.85485 0.0288,0.14886 0.10634,0.43993 0.17265,0.64634 0.0663,0.20642 0.19682,0.52417 0.29022,0.70599 0.0934,0.18223 0.25688,0.45411 0.36363,0.60465 0.10633,0.15053 0.31692,0.4024 0.46704,0.55961 0.15054,0.15721 0.42117,0.3974 0.60173,0.53376 0.18056,0.13636 0.5371,0.34986 0.7923,0.47496 0.2552,0.1251 0.65177,0.27814 0.8811,0.34028 l 0.417,0.11259 0.81315,0.002 c 0.72349,10e-4 0.85238,-0.009 1.1676,-0.0943 0.19516,-0.0529 0.51208,-0.16054 0.70431,-0.23852 0.19224,-0.078 0.51124,-0.24103 0.7089,-0.36237 0.25604,-0.1568 0.51167,-0.3728 0.89153,-0.75188 l 0.5325,-0.53167 h 3.8768 l -0.0109,6.1324 -0.0104,6.1324 -7.3984,4.2718 c -4.0695,2.3494 -7.4038,4.2718 -7.4097,4.2718 -0.006,0 -0.99285,-0.46996 -2.1922,-1.0442 -1.1992,-0.57422 -2.1984,-1.0617 -2.2197,-1.0829 -0.0213,-0.0212 -0.0725,-0.1718 -0.11383,-0.33401 -0.0412,-0.16263 -0.14054,-0.45661 -0.22101,-0.65344 -0.0801,-0.19683 -0.24479,-0.51916 -0.36613,-0.7164 -0.14637,-0.2377 -0.37405,-0.51291 -0.67888,-0.82065 -0.25228,-0.25437 -0.59005,-0.54794 -0.7506,-0.65178 -0.16054,-0.10383 -0.38572,-0.23644 -0.5004,-0.29439 -0.11467,-0.058 -0.37113,-0.16305 -0.57004,-0.23311 -0.19849,-0.07 -0.50832,-0.15929 -0.68805,-0.19849 -0.22351,-0.0484 -0.51708,-0.0709 -0.9312,-0.0709 -0.41491,0 -0.70931,0.0225 -0.93824,0.0717 -0.18348,0.0396 -0.47413,0.11967 -0.64636,0.17847 -0.1718,0.0583 -0.45327,0.17723 -0.6255,0.26396 -0.1718,0.0867 -0.45327,0.25604 -0.6255,0.37655 -0.1718,0.12052 -0.45369,0.36113 -0.62591,0.53543 -0.17181,0.17389 -0.40074,0.43994 -0.50791,0.59089 -0.10717,0.15095 -0.27063,0.42284 -0.36362,0.60465 -0.0926,0.18181 -0.21685,0.47079 -0.27564,0.64301 -0.0593,0.17181 -0.13594,0.44411 -0.17055,0.60465 -0.035,0.16055 -0.0743,0.49832 -0.0872,0.7506 -0.0133,0.25979 -0.002,0.61508 0.0246,0.81983 0.0267,0.19848 0.0859,0.50415 0.13177,0.67929 0.0459,0.17514 0.15512,0.48455 0.24269,0.68805 0.088,0.20349 0.2698,0.53584 0.40408,0.73851 0.13427,0.20265 0.41408,0.54001 0.62133,0.74934 0.22017,0.22227 0.53292,0.48205 0.75143,0.62383 0.20558,0.13386 0.53876,0.31401 0.74017,0.40074 0.20099,0.0867 0.51124,0.19516 0.68888,0.24103 0.17765,0.0454 0.45453,0.10175 0.61508,0.12468 0.16054,0.0225 0.44202,0.0417 0.6255,0.0417 0.18348,4.2e-4 0.51207,-0.0263 0.72975,-0.0593 0.21809,-0.0329 0.5275,-0.10091 0.68805,-0.15012 0.16054,-0.0496 0.43326,-0.15471 0.60631,-0.23352 l 0.31484,-0.14345 2.0829,0.99788 2.0834,0.99787 0.0104,6.0874 0.0109,6.0874 -13.841,7.9912 c -7.6125,4.3952 -13.857,7.9912 -13.877,7.9912 -0.0204,0 -2.6446,-1.5087 -5.8318,-3.3523 l -5.7942,-3.3523 -0.0104,-23.648 -0.0104,-23.648 h 4.047 l 0.48873,0.49498 c 0.26896,0.2723 0.60381,0.57129 0.74393,0.6647 0.1401,0.0934 0.40323,0.24478 0.58421,0.3361 0.1814,0.0913 0.46996,0.21309 0.64177,0.27064 0.1718,0.0571 0.48121,0.13594 0.68763,0.1743 0.28856,0.0538 0.52416,0.0655 1.0216,0.05 0.51708,-0.0163 0.72891,-0.0421 1.0588,-0.12884 0.22685,-0.0596 0.62092,-0.20934 0.8757,-0.33235 0.25479,-0.12344 0.61341,-0.33652 0.79688,-0.47372 0.18348,-0.13761 0.47204,-0.39615 0.64092,-0.57504 0.16931,-0.17848 0.41784,-0.4954 0.55253,-0.7039 0.13469,-0.20808 0.30024,-0.51165 0.36779,-0.67428 0.0679,-0.16263 0.17056,-0.45912 0.22852,-0.65886 0.058,-0.19975 0.1276,-0.57129 0.15554,-0.82523 0.0383,-0.35737 0.0388,-0.56962 7.5e-4,-0.93367 -0.0271,-0.25938 -0.0963,-0.63384 -0.15387,-0.83273 -0.0575,-0.19849 -0.15346,-0.47705 -0.21267,-0.61883 -0.0596,-0.1422 -0.18181,-0.38406 -0.27147,-0.53793 -0.0897,-0.15387 -0.27188,-0.41658 -0.4049,-0.5838 -0.13261,-0.16722 -0.36238,-0.41408 -0.50958,-0.54836 -0.14762,-0.13427 -0.3999,-0.3336 -0.56045,-0.44244 -0.16054,-0.10884 -0.40949,-0.2577 -0.55377,-0.33026 -0.14387,-0.0726 -0.42534,-0.18682 -0.6255,-0.25395 -0.20016,-0.0671 -0.53043,-0.15095 -0.73434,-0.1864 -0.20349,-0.0354 -0.57045,-0.0646 -0.81562,-0.0646 -0.24561,0 -0.623,0.0304 -0.83903,0.0676 -0.21642,0.0371 -0.55252,0.12344 -0.74768,0.19224 -0.19473,0.0688 -0.46704,0.18182 -0.60465,0.25103 -0.13761,0.0696 -0.38906,0.21976 -0.55878,0.33444 -0.1693,0.11425 -0.45078,0.34444 -0.6255,0.51124 -0.17431,0.16722 -0.37321,0.37989 -0.44202,0.4733 l -0.1251,0.16971 -2.0262,10e-4 -2.0258,8.2e-4 -0.028,-1.6576 c -0.015,-0.91155 -0.0275,-12.486 -0.0275,-25.722 v -24.062 l 5.7859,-3.3398 c 3.1821,-1.8369 5.8118,-3.3414 5.843,-3.3431 z m -37.857,17.527 c -0.57337,-0.0133 -0.75225,-0.002 -1.0725,0.0676 -0.21141,0.0455 -0.54126,0.14011 -0.73308,0.20933 -0.19224,0.0696 -0.49707,0.21058 -0.67763,0.31358 -0.18056,0.103 -0.46537,0.29232 -0.63342,0.42075 -0.16763,0.12844 -0.4195,0.3582 -0.5592,0.50999 -0.13969,0.15179 -0.34819,0.41534 -0.46329,0.58506 -0.11509,0.17013 -0.29023,0.47997 -0.38864,0.68805 -0.0988,0.2085 -0.22977,0.5667 -0.2919,0.79605 -0.0926,0.34444 -0.11551,0.53334 -0.13178,1.0842 -0.0154,0.51124 -0.004,0.7527 0.0488,1.0329 0.0375,0.20141 0.12635,0.53001 0.19682,0.72975 0.0705,0.20016 0.19016,0.4858 0.26563,0.63509 0.0755,0.14887 0.23186,0.40491 0.34737,0.56837 0.1155,0.16346 0.31483,0.41075 0.44327,0.54919 0.12801,0.13844 0.36904,0.35611 0.53542,0.48372 0.16638,0.12719 0.45036,0.31567 0.63092,0.41866 0.18057,0.103 0.48498,0.24395 0.67596,0.31318 0.1914,0.0688 0.54002,0.16513 0.7752,0.2135 0.35946,0.0742 0.52709,0.0851 1.0529,0.0688 0.38072,-0.0117 0.74977,-0.0475 0.94327,-0.0922 l 0.31776,-0.0734 0.63092,0.48831 0.63092,0.48872 v 14.446 l -6.255,4.2017 -6.255,4.2021 0.0104,10.472 0.0104,10.471 6.2342,2.8256 6.2342,2.8256 0.0104,7.4635 0.0108,7.4635 -0.28939,0.26396 c -0.15888,0.14553 -0.63593,0.5984 -1.0596,1.0062 l -0.771,0.74226 -0.4416,-0.045 c -0.31317,-0.0321 -0.56754,-0.0321 -0.87735,-4.2e-4 -0.23978,0.0242 -0.57921,0.0809 -0.75435,0.12552 -0.17514,0.045 -0.47413,0.14428 -0.6647,0.22059 -0.19056,0.0763 -0.50957,0.24103 -0.7089,0.36571 -0.19974,0.12469 -0.53084,0.38406 -0.736,0.57629 -0.20559,0.19266 -0.45453,0.45537 -0.55295,0.5838 -0.0988,0.12886 -0.26688,0.38489 -0.37405,0.56963 -0.10716,0.18473 -0.25896,0.51582 -0.33777,0.73558 -0.0784,0.22018 -0.17097,0.55712 -0.20516,0.74894 -0.0342,0.1914 -0.0742,0.47955 -0.0884,0.64009 -0.0142,0.16055 -0.006,0.48914 0.0188,0.73058 0.025,0.24145 0.0926,0.61591 0.15054,0.83273 0.058,0.21643 0.18765,0.56754 0.28857,0.78022 0.1005,0.21267 0.28272,0.5321 0.40491,0.71016 0.12218,0.17805 0.36279,0.46578 0.53459,0.63967 0.17222,0.17431 0.41575,0.39323 0.5421,0.48706 0.12635,0.0938 0.3607,0.24436 0.52125,0.33443 0.16054,0.0905 0.44202,0.2231 0.6255,0.29482 0.18348,0.0722 0.49331,0.16888 0.68805,0.21559 0.19516,0.0463 0.56253,0.0963 0.8169,0.11051 0.28356,0.0163 0.62175,0.006 0.87525,-0.0259 0.22726,-0.0284 0.57254,-0.098 0.7677,-0.1547 0.19474,-0.0563 0.50623,-0.17389 0.6918,-0.26062 0.18556,-0.0872 0.4858,-0.25771 0.6672,-0.37947 0.18181,-0.12177 0.50165,-0.39157 0.71056,-0.60007 0.21559,-0.21433 0.48539,-0.54002 0.62175,-0.75015 0.13302,-0.20391 0.31233,-0.53251 0.39907,-0.72975 0.0863,-0.19724 0.19557,-0.50582 0.24228,-0.68555 0.0467,-0.18015 0.10676,-0.48956 0.13344,-0.68805 0.0271,-0.20266 0.038,-0.55711 0.0246,-0.80692 l -0.0233,-0.44619 1.9336,-1.8473 1.9332,-1.8477 0.002,-10.531 0.003,-10.531 -6.255,-2.8331 -6.255,-2.8335 v -14.2 l 6.2446,-4.195 6.2446,-4.1946 0.0104,-10.171 0.0104,-10.17 -1.7514,-1.3498 -1.7514,-1.3498 v -0.27981 c 0,-0.15429 -0.0279,-0.44077 -0.0621,-0.63676 -0.0345,-0.19425 -0.11175,-0.5115 -0.17175,-0.70275 -0.06,-0.1905 -0.183,-0.495 -0.273,-0.67575 -0.09,-0.18075 -0.2595,-0.468 -0.3765,-0.63675 -0.117,-0.17025 -0.33675,-0.435 -0.489,-0.59025 -0.1515,-0.15375 -0.38775,-0.366 -0.525,-0.47025 -0.138,-0.10425 -0.3645,-0.25875 -0.50475,-0.34275 -0.1395,-0.084 -0.39225,-0.2115 -0.561,-0.28275 -0.16875,-0.072 -0.486,-0.17775 -0.705,-0.23475 -0.327,-0.0863 -0.5205,-0.10725 -1.086,-0.12075 z m 46.766,-0.0133 c -0.35736,0.002 -0.66594,0.0288 -0.90532,0.0792 -0.20016,0.0421 -0.46287,0.10884 -0.5838,0.14804 -0.12134,0.0392 -0.38947,0.15178 -0.59589,0.24978 -0.20642,0.098 -0.49748,0.26771 -0.64635,0.37696 -0.14929,0.10925 -0.37113,0.28356 -0.49331,0.38739 -0.1226,0.10425 -0.34403,0.34028 -0.49206,0.525 -0.14804,0.18474 -0.35028,0.47663 -0.44911,0.64886 -0.0988,0.1718 -0.23144,0.44327 -0.29482,0.60298 -0.0634,0.16013 -0.14053,0.37572 -0.17139,0.47955 -0.0304,0.10425 -0.0847,0.35612 -0.12009,0.55962 -0.0355,0.2039 -0.0642,0.49706 -0.0642,0.65177 v 0.28189 l -1.7514,1.3494 -1.751,1.3498 -4.3e-4,10.161 v 10.161 l 6.255,4.2017 6.255,4.2013 v 14.189 l -6.255,2.8331 -6.255,2.8335 0.003,10.529 0.003,10.529 1.9328,1.8473 1.9328,1.8469 -0.0233,0.44661 c -0.0133,0.2502 -0.002,0.60465 0.0246,0.8073 0.0267,0.19848 0.0867,0.5079 0.13344,0.68805 0.0463,0.17972 0.14762,0.47329 0.22435,0.65176 0.0767,0.1789 0.23977,0.48789 0.36238,0.68681 0.15095,0.24561 0.37028,0.50915 0.68262,0.82192 0.31275,0.31234 0.5763,0.53168 0.82193,0.68263 0.19891,0.1226 0.5079,0.28565 0.6868,0.36238 0.17847,0.0767 0.47204,0.17806 0.65177,0.22434 0.18015,0.0467 0.48956,0.10675 0.68805,0.13344 0.21267,0.0284 0.55836,0.038 0.84067,0.023 0.28815,-0.015 0.64593,-0.0659 0.89655,-0.12803 0.22935,-0.0567 0.55169,-0.15846 0.71641,-0.22685 0.16429,-0.0684 0.43159,-0.20141 0.59339,-0.29607 0.16179,-0.0942 0.43409,-0.28398 0.60465,-0.42159 0.17097,-0.13719 0.39907,-0.34777 0.50707,-0.46745 0.10801,-0.12009 0.28981,-0.34945 0.40449,-0.50999 0.11426,-0.16055 0.30024,-0.48247 0.41242,-0.71558 0.11259,-0.23309 0.24978,-0.60131 0.30482,-0.81855 0.055,-0.21726 0.12135,-0.58672 0.1472,-0.8211 0.0342,-0.31066 0.0346,-0.54918 10e-4,-0.87735 -0.0246,-0.24811 -0.0817,-0.59505 -0.12676,-0.771 -0.045,-0.17597 -0.1447,-0.47579 -0.22101,-0.66636 -0.0763,-0.19057 -0.24103,-0.51249 -0.36571,-0.71557 -0.15846,-0.25812 -0.36988,-0.51249 -0.70598,-0.84862 -0.33152,-0.3311 -0.59089,-0.54753 -0.83858,-0.69973 -0.19765,-0.12135 -0.51957,-0.28565 -0.71599,-0.36571 -0.1964,-0.0801 -0.49998,-0.18223 -0.6747,-0.22685 -0.17514,-0.0446 -0.51416,-0.10133 -0.7539,-0.12551 -0.30983,-0.0317 -0.5642,-0.0317 -0.87735,4.1e-4 l -0.4416,0.045 -0.81315,-0.78397 c -0.44703,-0.43075 -0.92408,-0.88365 -1.06,-1.0058 l -0.24687,-0.22227 0.0109,-7.4626 0.0104,-7.4622 4.0032,-1.8152 c 2.2018,-0.99833 4.6412,-2.1034 5.421,-2.4561 0.77977,-0.35279 1.784,-0.80775 2.231,-1.0117 l 0.81315,-0.37029 v -20.959 l -6.2446,-4.195 -6.2446,-4.195 v -14.44 l 0.63217,-0.48955 0.63217,-0.48998 0.31651,0.0726 c 0.17388,0.0396 0.56336,0.0817 0.86527,0.0934 0.32943,0.0129 0.6868,0.001 0.8928,-0.0288 0.18891,-0.0275 0.50291,-0.0963 0.69807,-0.15304 0.19473,-0.0563 0.49455,-0.16722 0.66594,-0.24686 0.17181,-0.0792 0.46454,-0.2452 0.65052,-0.36946 0.1864,-0.12385 0.46537,-0.34111 0.62008,-0.4833 0.15471,-0.14178 0.40366,-0.42034 0.55295,-0.61925 0.14927,-0.19849 0.34443,-0.50206 0.43368,-0.67387 0.0892,-0.17223 0.21933,-0.4758 0.28939,-0.67512 0.07,-0.19891 0.15638,-0.51542 0.19182,-0.70307 0.038,-0.20058 0.0646,-0.56837 0.0646,-0.89445 0,-0.324 -0.0267,-0.69388 -0.0642,-0.89197 -0.0355,-0.18599 -0.11259,-0.48372 -0.17222,-0.66137 -0.0592,-0.17764 -0.17389,-0.45453 -0.25437,-0.61507 -0.0805,-0.16055 -0.2402,-0.43285 -0.35528,-0.60465 -0.1151,-0.17222 -0.3703,-0.4733 -0.56755,-0.66929 -0.19724,-0.19641 -0.50707,-0.45703 -0.68888,-0.57963 -0.18139,-0.12218 -0.48163,-0.29356 -0.6672,-0.38072 -0.18556,-0.0867 -0.5029,-0.20599 -0.70556,-0.26437 -0.20224,-0.0588 -0.48372,-0.12553 -0.62509,-0.14846 -0.14136,-0.0229 -0.50123,-0.0409 -0.79935,-0.0392 z"
         id="icon" /></g></g></svg>