<?xml version="1.0" standalone="no"?>
<!DOCTYPE svg PUBLIC "-//W3C//DTD SVG 20010904//EN"
 "http://www.w3.org/TR/2001/REC-SVG-20010904/DTD/svg10.dtd">
<svg version="1.0" xmlns="http://www.w3.org/2000/svg"
 width="500.000000pt" height="500.000000pt" viewBox="0 0 500.000000 500.000000"
 preserveAspectRatio="xMidYMid meet">

<g transform="translate(0.000000,500.000000) scale(0.100000,-0.100000)"
fill="#000000" stroke="none">
<path d="M2300 4439 c-236 -25 -520 -112 -712 -221 -274 -154 -497 -360 -670
-619 -227 -339 -341 -778 -308 -1187 33 -412 201 -796 480 -1102 230 -250 496
-423 815 -529 376 -126 835 -119 1198 18 173 65 325 146 465 249 108 79 126
94 251 221 243 249 405 537 480 856 44 188 55 302 48 500 -6 174 -21 268 -71
455 -76 287 -289 629 -542 869 -368 350 -930 541 -1434 490z m220 -155 l0 -45
-42 3 c-39 3 -43 6 -46 31 -6 46 4 57 48 57 l40 0 0 -46z m-112 -1 c-3 -15
-19 -19 -93 -26 -102 -9 -276 -48 -380 -84 -386 -138 -664 -358 -905 -717
-122 -182 -232 -489 -255 -711 -13 -133 -16 -145 -32 -145 -14 0 -15 12 -10
91 19 267 134 595 287 818 69 101 236 299 272 323 13 8 34 26 48 40 123 119
354 255 563 329 128 46 209 66 349 83 148 20 160 19 156 -1z m332 -4 c172 -24
335 -80 535 -183 258 -133 487 -340 660 -596 71 -105 108 -177 99 -192 -4 -6
-3 -8 4 -4 11 7 23 -20 28 -64 1 -14 20 -77 42 -140 42 -123 67 -218 60 -226
-3 -2 -11 22 -18 53 -17 80 -91 286 -130 364 -18 35 -71 122 -117 193 -272
411 -756 715 -1221 767 -133 15 -142 17 -142 35 0 17 30 16 200 -7z m-910 -29
c-8 -5 -19 -10 -25 -10 -5 0 -3 5 5 10 8 5 20 10 25 10 6 0 3 -5 -5 -10z
m-145 -68 c-146 -76 -226 -125 -307 -189 -37 -30 -65 -48 -62 -41 8 18 96 84
189 142 83 52 263 144 280 145 6 0 -40 -25 -100 -57z m1085 -21 c303 -65 555
-190 790 -393 67 -58 204 -213 259 -293 71 -102 157 -266 198 -375 39 -104 86
-307 81 -355 -1 -17 2 -37 6 -44 7 -10 5 -12 -4 -6 -10 6 -12 4 -7 -9 4 -9 3
-15 -2 -12 -5 3 -12 34 -16 68 -38 352 -273 780 -553 1010 -43 34 -79 65 -82
69 -3 3 -57 39 -120 80 -276 176 -568 256 -890 246 -420 -13 -800 -179 -1084
-471 -172 -178 -305 -386 -380 -596 -41 -112 -86 -329 -93 -441 -5 -87 -8 -99
-25 -99 -23 0 -23 33 -3 180 52 389 207 706 482 985 251 256 574 417 943 471
131 19 375 11 500 -15z m-238 -98 c-40 -2 -103 -2 -140 0 -37 2 -4 3 73 3 77
0 107 -2 67 -3z m-280 -18 c-183 -34 -319 -81 -482 -167 -356 -188 -634 -531
-752 -928 -80 -270 -88 -510 -27 -754 23 -91 20 -114 -4 -29 -44 157 -58 368
-36 530 31 228 132 501 252 678 53 78 189 247 215 266 11 8 61 49 112 91 136
115 340 224 518 278 97 29 191 48 237 48 31 0 24 -3 -33 -13z m561 -15 c126
-32 192 -57 320 -121 146 -73 237 -131 303 -195 31 -30 35 -35 9 -13 -176 152
-479 292 -735 340 -84 15 -92 18 -42 14 34 -3 100 -14 145 -25z m-495 -102
c54 -26 96 -82 112 -150 10 -39 11 -304 6 -1190 -7 -1107 -8 -1141 -27 -1186
-43 -100 -127 -152 -246 -152 -82 0 -169 27 -199 62 l-19 22 29 -18 c20 -13
31 -15 35 -7 5 8 19 7 50 -4 71 -25 150 -20 214 14 31 16 59 26 64 23 4 -4 5
-3 1 2 -4 5 4 22 17 38 13 16 29 46 35 68 7 26 10 410 8 1187 -3 1134 -3 1148
-23 1183 -28 47 -112 90 -174 90 -82 0 -211 -61 -219 -103 -5 -24 21 -21 36 4
21 34 118 72 182 72 56 0 123 -25 149 -57 19 -23 2 -19 -44 9 -73 45 -198 31
-255 -30 -28 -30 -8 -45 23 -17 37 33 69 45 122 45 72 0 137 -40 171 -105 29
-56 8 -52 -34 6 -55 77 -141 97 -216 52 -38 -23 -39 -24 -18 -35 15 -8 22 -8
22 -1 0 6 12 15 27 21 62 23 160 -35 208 -125 18 -33 13 -68 -5 -36 -23 40
-72 101 -94 115 -28 19 -88 30 -112 21 -23 -9 1 -36 33 -36 53 0 113 -50 154
-130 l24 -45 3 -441 c3 -441 -2 -514 -30 -486 -16 16 -53 15 -67 -2 -14 -17
-5 -43 17 -49 10 -3 5 -5 -11 -6 -20 -1 -32 7 -45 27 -16 26 -20 27 -91 24
-72 -3 -77 -5 -140 -52 -95 -70 -135 -83 -231 -78 -57 3 -92 11 -127 29 -61
32 -113 104 -113 160 0 54 16 57 24 5 17 -108 111 -176 244 -176 57 0 98 17
172 71 25 19 72 51 105 73 33 21 77 52 98 68 l37 30 0 384 c0 335 2 384 15
384 13 0 15 -49 15 -385 0 -429 7 -388 -74 -450 -29 -22 -34 -30 -23 -37 26
-14 72 -4 106 24 l32 27 -3 418 -3 418 -27 46 c-36 60 -115 131 -185 166 -45
21 -74 28 -144 31 -82 4 -93 2 -153 -26 -96 -45 -191 -150 -162 -179 8 -9 78
27 139 72 65 46 115 59 178 46 57 -12 129 -47 129 -61 0 -13 2 -14 -54 15 -36
18 -65 25 -107 25 -72 0 -97 -10 -148 -55 -22 -20 -76 -52 -120 -70 -198 -84
-284 -193 -285 -362 -1 -55 -4 -65 -26 -79 -101 -68 -158 -180 -136 -269 7
-26 7 -26 35 -9 21 12 31 28 35 54 3 20 23 61 45 91 26 36 49 88 71 159 77
250 109 292 299 386 116 57 139 72 135 87 -12 40 54 75 84 45 29 -29 -5 -78
-56 -78 -13 0 -43 -14 -67 -30 -25 -17 -77 -44 -116 -60 -42 -17 -89 -45 -112
-67 -47 -45 -101 -154 -151 -308 -23 -70 -48 -125 -69 -150 -24 -30 -32 -50
-32 -82 -1 -39 -6 -48 -56 -92 -39 -35 -65 -69 -85 -113 -26 -56 -29 -74 -29
-163 0 -90 3 -105 28 -155 37 -72 58 -94 140 -147 79 -50 103 -91 94 -158 -3
-22 -2 -59 2 -82 5 -23 5 -40 1 -38 -4 2 -13 33 -19 67 -23 123 -45 154 -139
202 l-32 17 0 -26 c0 -72 66 -139 115 -117 22 10 23 9 27 -71 5 -96 33 -160
95 -219 35 -34 133 -88 160 -88 15 0 33 -32 33 -56 0 -32 62 -115 117 -153 29
-22 76 -45 104 -51 31 -8 53 -20 60 -33 11 -19 9 -20 -40 -14 -63 7 -156 55
-204 105 -41 44 -77 108 -77 139 0 16 -8 24 -27 29 -88 21 -194 108 -234 190
-11 24 -26 73 -32 109 -10 58 -13 65 -39 70 -60 14 -114 119 -93 184 4 14 -4
38 -29 78 -50 82 -70 161 -63 248 6 76 35 162 71 210 16 21 21 36 15 50 -13
35 -10 130 7 181 19 56 71 125 113 150 26 16 29 23 33 89 7 107 56 206 135
272 33 27 73 55 90 62 25 10 33 22 42 58 27 104 173 208 309 220 67 5 74 8 98
40 76 100 245 138 362 81z m578 -9 c34 -16 77 -46 96 -68 32 -35 40 -38 103
-44 138 -13 273 -108 312 -219 15 -41 26 -54 68 -78 65 -37 129 -100 154 -153
26 -54 51 -151 51 -198 0 -29 6 -40 34 -60 90 -64 132 -161 124 -287 -5 -68
-2 -81 23 -133 53 -106 62 -205 30 -309 -20 -64 -53 -109 -80 -111 -12 0 -11
-3 4 -10 19 -8 19 -9 -2 -6 -12 1 -21 -2 -20 -8 1 -5 7 -9 15 -7 8 2 7 -4 -5
-15 -15 -16 -20 -16 -28 -5 -9 11 -16 9 -38 -8 -50 -39 -34 -17 35 52 38 36
68 62 68 58 0 -5 -4 -12 -10 -15 -5 -3 -10 -11 -10 -18 0 -6 6 -2 14 9 8 11
14 27 13 35 -1 8 4 47 12 87 26 143 -9 259 -106 349 -52 48 -55 55 -59 105 -3
49 -2 51 11 34 8 -11 15 -30 15 -42 0 -13 14 -32 34 -48 39 -29 46 -23 46 44
0 82 -60 187 -136 237 -18 11 -22 26 -26 86 -12 164 -105 280 -288 356 -41 17
-97 49 -123 71 -27 21 -64 42 -84 46 -61 11 -158 -2 -200 -27 -37 -22 -37 -22
-19 -1 39 45 179 68 243 40 15 -7 46 -27 68 -44 61 -48 135 -80 135 -59 0 26
-37 79 -83 122 -74 67 -131 86 -240 81 -104 -4 -188 -42 -267 -119 -99 -96
-95 -73 -98 -551 -3 -412 -3 -416 18 -423 23 -7 44 -40 35 -55 -4 -6 -16 -4
-30 6 -33 21 -69 3 -62 -32 5 -28 -14 -32 -34 -7 -19 22 -26 821 -9 923 19
114 91 200 178 214 22 3 45 13 52 21 11 13 6 15 -34 15 -85 0 -133 -33 -173
-121 -10 -21 -21 -39 -25 -39 -12 0 -10 13 8 56 40 99 143 153 219 117 24 -12
38 -14 46 -6 26 26 -94 64 -155 49 -36 -9 -87 -55 -104 -96 -8 -20 -17 -29
-20 -22 -2 8 4 32 14 54 37 83 156 116 243 67 23 -12 41 -27 41 -32 0 -8 19
-4 69 15 l24 9 -24 25 c-13 14 -46 38 -74 52 -41 22 -64 27 -126 27 -65 0 -81
-4 -116 -27 -24 -16 -49 -44 -62 -70 -21 -43 -21 -46 -21 -1197 l-1 -1153 21
-44 c12 -25 39 -56 63 -73 23 -17 47 -34 53 -40 6 -5 49 -8 95 -7 72 1 91 5
133 28 26 16 43 22 37 14 -6 -8 -25 -19 -41 -26 -17 -7 -30 -15 -30 -19 0 -3
-10 -7 -22 -7 -135 -7 -161 -14 -103 -27 11 -3 0 -3 -24 -1 -80 7 -163 71
-200 154 -19 44 -19 77 -22 1210 -3 1111 -2 1167 15 1200 69 132 211 171 362
99z m-1626 -8 c0 -5 -30 -35 -67 -67 -38 -32 -59 -48 -48 -34 11 13 35 38 54
54 19 17 39 36 45 43 13 15 16 16 16 4z m1596 -55 c28 -13 55 -29 58 -35 4 -6
-17 1 -46 14 -37 17 -71 25 -110 25 -67 0 -103 -12 -140 -48 -29 -27 -35 -24
-18 9 32 59 165 77 256 35z m-1736 -91 c-7 -8 -17 -15 -23 -15 -6 0 -2 7 9 15
25 19 30 19 14 0z m867 -56 c70 -23 140 -78 159 -126 18 -42 19 -107 2 -96 -7
4 -20 6 -30 5 -9 -2 -19 2 -23 8 -20 33 -81 -12 -73 -54 5 -24 4 -25 -23 -10
-24 12 -29 21 -29 50 0 67 73 107 128 68 18 -12 22 -13 22 -1 0 32 -48 83
-110 117 -57 30 -74 34 -140 35 -69 0 -80 -3 -136 -37 -33 -20 -68 -46 -79
-58 -21 -23 -35 -26 -35 -7 0 16 89 83 143 108 56 25 147 25 224 -2z m1174 6
c24 -9 60 -29 79 -46 27 -23 29 -28 10 -18 -14 6 -36 20 -50 29 -39 27 -116
40 -177 29 -102 -19 -213 -103 -213 -161 0 -18 2 -17 29 3 23 17 37 20 65 15
37 -7 73 -46 61 -66 -8 -13 -35 -13 -35 0 0 6 -11 10 -25 10 -19 0 -31 -10
-46 -35 -24 -39 -33 -43 -48 -17 -8 13 -10 -1 -11 -55 0 -68 1 -73 22 -73 24
0 58 -26 58 -45 0 -7 -6 -18 -14 -24 -11 -9 -15 -7 -19 9 -6 24 -25 26 -34 4
-4 -11 1 -22 12 -30 18 -13 17 -14 -7 -14 -14 0 -30 6 -35 13 -5 6 -8 77 -7
157 2 119 6 153 22 191 45 104 234 168 363 124z m-2133 -62 c-14 -16 -32 -39
-41 -53 -10 -13 -17 -20 -17 -14 0 12 68 94 78 94 3 0 -6 -12 -20 -27z m2542
-68 c35 -36 62 -65 59 -65 -2 0 -34 29 -69 65 -35 36 -62 65 -59 65 2 0 34
-29 69 -65z m-428 38 c10 -9 18 -25 18 -35 0 -16 -3 -17 -22 -7 -18 10 -24 8
-39 -12 l-17 -23 -13 27 c-10 23 -10 30 6 47 22 24 42 25 67 3z m210 -153 c35
-11 139 -93 137 -108 -3 -19 2 -33 10 -27 9 5 85 -176 94 -225 3 -14 10 -37
16 -52 5 -15 7 -30 2 -32 -4 -3 -23 38 -41 92 -37 111 -99 252 -110 252 -5 0
-17 14 -28 31 -10 17 -21 30 -23 29 -16 -5 -183 76 -205 101 -15 16 -4 13 46
-14 36 -19 82 -40 102 -47z m-276 33 c-6 -17 -54 -53 -72 -53 -4 0 9 18 31 40
40 41 51 45 41 13z m-1131 -54 c90 -79 116 -122 91 -148 -15 -14 -16 -13 -16
13 0 27 -54 90 -121 142 -27 21 -55 64 -41 64 4 0 44 -32 87 -71z m-135 31
c26 -26 25 -42 -5 -70 -19 -18 -25 -34 -25 -67 l0 -43 45 0 c44 0 50 -4 134
-85 78 -75 92 -85 115 -79 33 8 76 -18 76 -46 0 -22 -20 -26 -37 -9 -14 14
-33 3 -33 -18 0 -11 7 -14 28 -9 26 6 26 6 7 -9 -11 -9 -26 -12 -35 -9 -8 4
-33 9 -55 12 -31 3 -55 17 -102 58 -59 52 -63 54 -120 54 -85 -1 -147 -37
-192 -111 -18 -29 -29 -89 -17 -89 20 0 36 16 36 36 0 32 63 100 106 114 50
17 92 6 146 -38 26 -20 76 -61 112 -90 l66 -52 0 -97 0 -97 35 34 c32 31 35
39 35 88 0 41 -3 53 -13 49 -19 -7 -41 8 -33 22 4 6 16 11 27 11 15 0 19 7 19
33 1 63 19 2 26 -85 6 -81 6 -84 -21 -116 -33 -39 -191 -158 -266 -201 -118
-66 -269 -23 -286 82 -8 50 8 47 32 -5 23 -50 86 -88 145 -88 46 0 122 41 211
114 l72 59 -6 91 -5 90 -43 38 c-89 78 -182 138 -213 138 -41 0 -91 -32 -111
-70 -15 -28 -14 -30 4 -30 10 0 24 7 31 15 15 18 71 29 104 21 29 -7 60 -68
52 -102 -4 -14 -24 -37 -46 -52 -29 -20 -39 -34 -40 -54 0 -15 -4 -30 -10 -33
-6 -4 -10 6 -10 24 0 95 -210 49 -267 -59 -43 -82 -26 -159 53 -234 69 -67
133 -88 281 -95 165 -8 182 -27 20 -23 -205 6 -331 63 -383 176 -46 99 -22
199 60 255 85 59 156 74 221 47 34 -14 35 -14 65 20 36 41 37 53 9 88 -30 38
-49 34 -42 -9 7 -43 -16 -56 -58 -33 -25 15 -31 14 -82 -7 -86 -34 -177 -111
-209 -174 -26 -50 -26 -55 -12 -82 14 -28 13 -31 -10 -54 -43 -43 -100 -23
-91 33 2 15 7 47 10 71 7 50 25 89 72 150 20 27 33 55 33 73 0 16 14 73 32
125 24 74 39 103 66 127 18 17 51 49 73 71 21 22 39 36 39 32 0 -24 -31 -76
-48 -82 -41 -12 -80 -73 -111 -170 -17 -52 -31 -104 -31 -116 0 -26 -15 -54
-55 -104 -36 -44 -63 -135 -40 -135 8 0 21 22 30 49 11 35 33 65 78 108 34 33
71 65 82 71 14 7 24 28 33 69 22 106 107 178 217 186 80 6 97 0 152 -54 55
-53 77 -63 93 -45 8 11 -10 33 -81 100 l-92 87 -86 -3 c-82 -3 -86 -4 -99 -30
-7 -14 -35 -45 -62 -68 -42 -35 -53 -52 -70 -107 -11 -36 -20 -73 -20 -83 0
-11 -5 -22 -11 -26 -18 -11 -5 81 21 149 16 43 32 66 60 85 21 15 45 43 53 63
12 30 20 37 58 45 41 8 44 11 46 44 2 24 -4 43 -20 62 l-22 27 -59 -24 c-32
-13 -75 -39 -94 -57 -42 -40 -97 -154 -151 -312 -22 -65 -49 -128 -59 -140
-30 -33 -49 -76 -61 -140 -6 -34 -24 -78 -41 -104 -39 -60 -54 -115 -45 -177
11 -82 58 -138 189 -223 55 -35 77 -39 99 -17 19 18 29 8 16 -16 -7 -13 -21
-19 -47 -19 -41 0 -56 9 -116 63 -22 20 -43 34 -47 31 -10 -6 -77 63 -97 101
-11 20 -16 57 -17 110 0 74 3 85 37 147 20 36 42 94 49 128 8 43 23 77 47 108
23 30 49 89 79 180 87 263 137 330 268 363 31 8 60 24 77 41 31 33 51 35 78 8z
m930 -360 l0 -379 68 -54 c65 -52 174 -127 254 -176 58 -34 147 -34 220 2 69
34 96 63 119 129 l18 53 0 -38 c2 -78 -52 -135 -156 -167 -120 -37 -174 -27
-298 56 -73 48 -86 53 -148 57 -82 6 -101 17 -31 17 l49 1 -63 57 -62 57 0
376 c0 207 3 379 7 382 3 4 10 7 15 7 4 0 8 -171 8 -380z m460 360 c31 -31 26
-47 -14 -42 -24 3 -35 -1 -39 -12 -4 -10 -1 -16 8 -16 17 0 39 -36 30 -50 -3
-5 -3 -20 1 -34 4 -18 16 -27 50 -35 34 -9 45 -17 50 -36 3 -14 28 -43 54 -65
53 -45 75 -90 85 -180 8 -69 1 -63 -20 20 -21 82 -47 125 -95 155 -21 13 -42
35 -46 47 -10 34 -21 38 -109 37 l-80 0 -87 -83 c-49 -46 -88 -91 -88 -100 0
-30 33 -16 91 39 l58 55 76 0 c92 0 129 -15 185 -76 30 -33 40 -51 39 -76 0
-27 -2 -29 -8 -13 -5 11 -7 23 -4 28 2 4 -1 7 -7 7 -6 0 -8 5 -5 10 3 6 2 10
-4 10 -5 0 -13 9 -16 20 -4 11 -11 17 -17 14 -7 -4 -8 -2 -4 4 13 21 -81 52
-155 52 l-69 0 -54 -55 c-53 -55 -69 -63 -95 -46 -10 6 -23 2 -42 -12 -39 -28
-79 -12 -79 32 0 49 42 76 79 52 14 -9 43 14 162 132 32 31 44 37 81 37 l43 0
-1 38 c-1 27 -9 46 -28 65 -32 32 -32 41 -1 72 29 30 49 31 75 5z m481 -27
c13 -16 12 -17 -3 -4 -17 13 -22 21 -14 21 2 0 10 -8 17 -17z m-346 -42 c85
-38 132 -112 199 -313 20 -59 37 -115 39 -125 1 -10 6 -24 11 -32 6 -9 5 -12
-4 -9 -8 2 -32 60 -55 129 -83 246 -117 299 -225 348 -27 12 -37 21 -25 21 11
0 38 -9 60 -19z m-1909 -36 c-15 -19 -34 -52 -43 -73 -9 -20 -18 -32 -20 -25
-5 15 19 62 53 102 35 42 43 39 10 -4z m1517 7 c-7 -4 -20 -26 -30 -47 l-17
-40 -4 30 c-4 29 25 65 52 65 8 0 7 -3 -1 -8z m-1206 -18 c2 -7 -15 -11 -44
-13 -57 -2 -112 -35 -146 -86 -22 -35 -37 -44 -37 -23 0 19 50 85 78 104 49
32 141 44 149 18z m179 -6 c56 -44 156 -156 144 -163 -7 -4 -44 26 -91 74 -56
58 -86 81 -103 81 -30 0 -43 17 -19 23 33 9 39 7 69 -15z m1214 13 c0 -12 -25
-21 -59 -21 -20 0 -39 -15 -79 -60 -47 -53 -82 -75 -82 -52 0 5 31 39 69 75
62 60 73 67 110 67 23 0 41 -4 41 -9z m-986 -122 c-12 -13 -28 -19 -48 -17
-63 6 -54 98 10 98 15 0 25 8 30 23 7 18 10 13 18 -31 8 -45 6 -55 -10 -73z
m1215 82 c19 -15 37 -33 39 -41 3 -8 -12 0 -34 18 -21 18 -44 32 -50 32 -6 0
-18 7 -25 16 -12 15 -11 16 11 9 14 -4 40 -19 59 -34z m-14 -60 c8 -16 24 -32
35 -36 48 -15 100 -131 120 -264 15 -103 3 -110 -15 -8 -8 50 -53 185 -73 219
-8 14 -32 36 -53 47 -20 12 -40 28 -43 37 -16 43 7 47 29 5z m-142 -165 c42
-17 98 -81 90 -102 -4 -12 -9 -9 -23 14 -28 45 -68 72 -109 72 -43 -1 -58 -9
-141 -75 -134 -107 -124 -91 -128 -193 l-4 -90 79 -62 c97 -77 161 -110 211
-110 51 0 123 39 142 76 14 29 15 29 18 5 5 -31 -25 -60 -85 -83 -106 -40
-146 -24 -364 139 -53 39 -99 79 -103 88 -3 9 -6 60 -6 113 0 108 13 151 25
83 5 -31 11 -41 26 -41 10 0 19 -7 19 -15 0 -9 -9 -15 -25 -15 -23 0 -25 -3
-25 -49 0 -39 6 -56 26 -80 14 -17 30 -31 35 -31 5 0 9 39 9 86 0 98 -13 79
137 199 112 88 135 97 196 71z m-1924 -73 c-41 -46 -50 -60 -75 -120 -13 -32
-24 -49 -24 -37 0 41 31 109 67 147 42 42 69 51 32 10z m1958 -32 c14 -12 32
-21 40 -21 9 0 43 -13 77 -30 85 -40 179 -134 201 -200 16 -49 44 -69 46 -32
0 9 6 -1 13 -23 15 -47 12 -59 -13 -43 -24 15 -51 4 -51 -22 0 -24 -13 -26
-31 -4 -11 13 -10 21 6 50 17 33 17 35 0 74 -38 84 -199 201 -280 204 -16 1
-35 8 -42 16 -15 19 -17 5 -2 -21 9 -18 8 -20 -13 -17 -24 3 -29 25 -13 61 10
23 -21 23 -47 0 -30 -27 -24 -77 13 -106 30 -23 34 -24 65 -11 45 19 74 18
139 -7 134 -50 187 -157 135 -270 -39 -86 -98 -132 -219 -174 -56 -19 -95 -25
-157 -25 -46 0 -95 -5 -111 -11 -27 -10 -27 -9 -10 8 14 15 40 19 140 23 106
5 130 9 182 33 70 33 98 56 136 116 33 52 40 132 14 180 -33 64 -128 115 -206
109 -39 -3 -46 -7 -59 -36 -17 -35 -30 -33 -30 4 0 14 -9 28 -22 35 -32 16
-58 50 -58 77 0 32 26 79 47 86 32 8 83 -2 110 -23z m-1320 -78 c4 -9 1 -19
-5 -21 -23 -7 -12 -22 28 -38 54 -22 66 -76 27 -124 -15 -19 -124 -103 -154
-118 -48 -26 -123 -4 -123 35 0 18 7 16 30 -7 29 -29 48 -25 132 30 129 84
148 129 70 164 -46 21 -64 55 -42 81 16 20 29 19 37 -2z m1145 -37 c-6 -14
-28 -34 -49 -43 -73 -35 -48 -86 86 -177 58 -39 85 -44 119 -20 26 18 30 4 5
-17 -45 -37 -110 -13 -224 83 -75 63 -74 136 2 152 29 5 31 9 26 35 -7 34 10
46 32 25 12 -11 12 -18 3 -38z m1116 -111 c0 -25 -2 -24 -9 10 -10 51 -10 92
1 50 4 -16 8 -43 8 -60z m-2510 39 c17 -11 21 -21 16 -37 -16 -53 -66 -74 -98
-41 -22 21 -20 50 4 74 24 24 48 25 78 4z m230 -23 c7 -44 -22 -59 -114 -60
-68 -1 -84 2 -84 14 0 11 12 15 43 15 38 0 44 3 54 29 17 46 94 48 101 2z
m1440 23 c27 -19 31 -50 5 -39 -38 16 -58 11 -61 -16 -3 -29 -15 -32 -100 -22
-55 6 -45 23 14 23 32 0 44 4 44 15 0 21 36 55 58 55 10 0 28 -7 40 -16z
m-224 0 c10 -4 16 -18 16 -37 l0 -31 -20 22 c-11 12 -27 19 -35 16 -18 -7 -19
-26 -3 -42 9 -9 7 -12 -10 -12 -36 0 -49 61 -18 82 13 9 49 10 70 2z m483 -56
c-3 -8 -6 -5 -6 6 -1 11 2 17 5 13 3 -3 4 -12 1 -19z m-2402 -72 c-71 -75 -86
-236 -31 -330 32 -55 85 -99 135 -114 24 -8 42 -21 49 -37 7 -15 8 -25 2 -25
-6 0 -10 4 -10 10 0 5 -28 23 -63 38 -75 34 -129 92 -148 160 -19 64 -16 165
5 230 20 59 73 129 88 114 5 -5 -6 -24 -27 -46z m2998 -21 c3 -42 2 -58 -3
-40 -8 30 -13 122 -6 114 2 -2 6 -35 9 -74z m-90 -114 c-7 -9 -12 7 -18 49
l-5 45 13 -45 c7 -25 12 -47 10 -49z m-2823 28 c-24 -43 17 -109 67 -109 32 0
63 -26 63 -53 0 -14 -4 -17 -17 -12 -39 16 -50 16 -63 0 -11 -14 -11 -20 -1
-37 7 -11 10 -22 8 -24 -11 -11 -37 11 -66 55 -34 53 -41 79 -12 44 16 -19 21
-21 31 -8 10 12 7 21 -14 46 -18 21 -26 42 -26 68 0 41 6 51 27 51 11 0 11 -4
3 -21z m70 -21 c0 -18 32 -48 50 -48 10 0 37 -17 61 -39 46 -40 118 -81 143
-81 8 0 22 -7 30 -16 9 -8 20 -13 25 -9 5 3 12 1 16 -5 3 -6 50 -10 109 -10
103 0 148 -13 132 -39 -5 -8 -13 -7 -29 4 -12 8 -43 15 -71 15 -47 0 -48 -1
-33 -18 10 -10 17 -26 17 -35 0 -18 -25 -23 -35 -7 -9 15 -31 12 -49 -6 -20
-20 -20 -29 0 -49 25 -25 7 -31 -24 -8 -35 26 -40 68 -12 98 l21 22 -106 43
c-58 24 -123 58 -144 76 -21 18 -50 36 -64 39 -33 9 -45 23 -54 65 -4 24 -3
31 5 26 7 -4 12 -12 12 -18z m-585 -43 c0 -39 -1 -40 -35 -40 -34 0 -35 1 -38
43 l-3 43 38 -3 c37 -3 38 -4 38 -43z m3483 3 c-3 -42 -4 -43 -38 -43 -34 0
-35 1 -38 43 l-3 42 41 0 41 0 -3 -42z m-667 4 c-6 -11 -23 -24 -38 -30 -16
-5 -55 -28 -87 -51 -33 -22 -64 -41 -70 -41 -6 0 -2 6 9 12 11 6 36 25 55 44
19 18 56 42 83 53 26 11 47 26 47 32 0 7 3 10 6 7 3 -4 1 -15 -5 -26z m-1431
9 c14 -4 35 -22 47 -40 22 -33 23 -42 23 -246 0 -117 -3 -227 -7 -245 -10 -53
-67 -101 -167 -140 -102 -40 -139 -75 -134 -124 2 -23 9 -32 25 -34 25 -4 47
29 38 57 -3 10 1 24 10 31 22 18 20 -14 -5 -67 -14 -33 -25 -43 -43 -43 -33 0
-47 18 -47 64 0 32 6 45 38 75 21 20 58 43 83 50 64 19 130 55 159 86 25 26
25 29 28 218 3 296 -5 328 -84 343 -39 7 -84 -11 -153 -61 -35 -26 -61 -32
-61 -15 0 6 5 10 12 10 6 0 34 17 62 39 28 21 58 41 66 44 21 7 80 6 110 -2z
m805 -37 c31 -21 59 -42 61 -46 7 -12 -44 12 -95 44 -72 45 -146 36 -175 -20
-20 -39 -29 -435 -11 -478 17 -41 94 -95 181 -128 40 -15 82 -39 95 -54 18
-20 19 -23 4 -11 -23 17 -48 29 -130 61 -33 13 -79 36 -102 51 -72 46 -74 56
-71 322 3 233 3 233 28 260 34 37 57 45 112 41 35 -2 62 -13 103 -42z m-356
-221 c-1 -142 -5 -244 -9 -228 -9 37 -12 469 -3 478 3 4 8 7 10 7 2 0 2 -116
2 -257z m-315 186 c9 -55 -4 -491 -15 -505 -5 -6 -3 -19 6 -30 24 -32 19 -44
-16 -37 -24 5 -31 2 -35 -13 -3 -11 -22 -27 -42 -36 -20 -10 -54 -34 -76 -53
-38 -36 -38 -36 -32 -96 8 -71 -7 -79 -23 -13 -17 66 6 108 82 153 43 26 57
39 57 57 0 15 10 30 28 41 15 10 30 22 34 28 4 5 8 130 8 278 0 248 8 325 24
226z m378 -247 c3 -251 -2 -322 -15 -209 -11 90 -8 492 3 481 6 -6 11 -117 12
-272z m975 234 c1 -33 1 -33 -27 -23 -24 9 -32 8 -49 -8 -12 -10 -21 -27 -21
-38 0 -16 -3 -17 -15 -7 -21 18 -19 57 5 78 11 9 39 20 63 23 23 3 42 7 42 7
0 1 1 -13 2 -32z m-2777 -13 c0 -57 25 -196 54 -307 92 -342 369 -690 724
-908 115 -71 301 -148 452 -189 36 -10 54 -18 42 -18 -35 -1 -173 36 -244 65
-227 94 -294 131 -488 270 -48 34 -234 229 -272 284 -144 210 -174 265 -229
427 -40 118 -63 222 -75 341 -6 69 -6 72 15 72 18 0 21 -6 21 -37z m1489 -260
c1 -158 -3 -254 -9 -258 -7 -4 -10 90 -9 277 1 157 5 272 9 258 4 -14 8 -138
9 -277z m1761 293 c0 -2 -7 -6 -15 -10 -8 -3 -15 -1 -15 4 0 6 7 10 15 10 8 0
15 -2 15 -4z m-1974 -27 c17 -19 19 -35 16 -172 -2 -84 -5 -153 -7 -156 -3 -2
-12 2 -20 9 -13 11 -19 10 -33 -4 -16 -16 -16 -18 2 -32 16 -11 17 -14 4 -14
-35 0 -48 12 -48 46 0 37 27 60 61 51 18 -5 19 2 19 118 0 133 -8 155 -54 155
-42 0 -56 -29 -54 -110 1 -62 -2 -76 -18 -86 -50 -33 -57 -42 -51 -58 8 -20
39 -21 76 -1 23 12 29 22 34 63 3 28 3 75 0 106 -5 53 -5 56 17 56 16 0 20 -4
16 -16 -3 -9 -6 -54 -6 -101 0 -81 -1 -86 -30 -113 -50 -47 -120 -46 -135 1
-6 19 0 29 34 58 l41 36 0 72 c0 65 2 73 26 92 35 27 85 27 110 0z m767 3 c11
-12 19 -45 23 -93 6 -76 6 -76 72 -130 17 -14 15 -34 -5 -54 -19 -20 -80 -14
-118 11 -28 18 -33 41 -37 149 -2 64 0 80 12 83 13 2 15 -14 16 -96 0 -120 9
-137 73 -137 58 0 62 18 12 50 l-41 25 0 73 c0 85 -16 117 -59 117 -16 0 -33
-6 -39 -12 -6 -7 -12 -70 -14 -140 l-3 -127 27 6 c32 6 58 -11 58 -38 0 -16
-3 -17 -19 -7 -15 9 -23 9 -35 -1 -19 -16 -21 -37 -3 -44 8 -4 9 -6 0 -6 -6
-1 -19 6 -27 15 -23 23 -23 319 0 352 20 28 83 31 107 4z m834 -4 c-3 -8 -6
-5 -6 6 -1 11 2 17 5 13 3 -3 4 -12 1 -19z m-2983 -30 c3 -18 10 -71 16 -117
23 -169 113 -413 215 -579 118 -193 315 -403 490 -522 132 -89 329 -189 477
-241 56 -19 39 -21 -31 -3 -152 38 -467 206 -578 307 -32 29 -81 73 -110 97
-57 50 -198 217 -249 297 -84 130 -176 330 -214 467 -25 91 -50 233 -50 289 0
48 27 52 34 5z m3433 -20 c-3 -7 -5 -2 -5 12 0 14 2 19 5 13 2 -7 2 -19 0 -25z
m-817 2 c0 -5 -5 -10 -11 -10 -5 0 -7 5 -4 10 3 6 8 10 11 10 2 0 4 -4 4 -10z
m100 -25 c-19 -14 -41 -25 -49 -25 -9 0 -2 7 14 16 17 8 34 19 40 25 5 5 13 9
19 9 5 0 -5 -11 -24 -25z m-1912 -19 c92 -12 104 -25 17 -19 -77 5 -125 22
-125 43 0 6 12 5 28 -3 15 -8 51 -17 80 -21z m1752 18 c-19 -9 -46 -20 -59
-25 l-24 -10 22 -20 c25 -24 19 -44 -9 -29 -33 18 -79 -13 -80 -54 0 -15 -3
-16 -15 -6 -21 18 -19 66 5 90 l20 20 -57 0 c-63 0 -74 -5 -91 -35 -11 -20
-11 -20 -12 2 0 44 25 54 129 52 65 -1 109 4 136 14 52 20 80 21 35 1z m-1732
-80 c15 -10 22 -25 22 -49 0 -30 -7 -39 -55 -72 -53 -37 -55 -39 -49 -75 l6
-37 -31 15 c-50 25 -96 -17 -59 -54 9 -9 8 -12 -8 -12 -29 0 -44 19 -44 56 0
37 38 74 75 74 23 0 123 61 137 83 23 36 -9 67 -67 67 -24 0 -47 5 -50 10 -10
17 98 12 123 -6z m1814 -6 c-40 -11 -53 -49 -27 -78 10 -11 23 -20 30 -20 7 0
20 -10 31 -22 17 -19 13 -18 -33 7 -55 29 -69 51 -59 90 6 25 50 46 76 37 9
-4 3 -9 -18 -14z m95 16 c-3 -3 -12 -4 -19 -1 -8 3 -5 6 6 6 11 1 17 -2 13 -5z
m64 -48 c-33 -34 -71 -53 -71 -35 0 5 6 9 13 9 7 0 28 13 47 30 47 39 51 38
11 -4z m-1676 -59 c1 -62 26 -87 91 -94 57 -6 74 -17 74 -47 0 -38 -19 -46
-105 -46 l-81 0 -13 -35 c-7 -20 -28 -51 -47 -70 -33 -34 -34 -36 -34 -119 0
-47 5 -97 12 -113 6 -15 11 -31 10 -35 -1 -5 2 -8 6 -8 4 0 23 -11 42 -25 19
-14 29 -25 23 -25 -7 0 -18 6 -25 13 -7 8 -24 19 -37 26 -35 19 -51 70 -51
166 l0 85 -35 0 c-46 0 -94 21 -125 55 -22 23 -25 36 -25 97 0 69 0 70 42 109
26 24 52 39 68 39 14 0 25 5 25 10 0 6 5 10 10 10 6 0 10 -9 10 -21 0 -12 -5
-19 -12 -16 -18 6 -80 -30 -102 -60 -10 -14 -21 -44 -23 -68 -5 -36 -1 -46 27
-78 63 -72 155 -69 200 5 29 48 26 94 -9 129 -43 43 -91 36 -138 -19 -16 -19
-23 -22 -23 -11 0 28 55 70 99 76 50 7 85 -13 108 -62 l17 -35 77 0 c43 0 81
5 84 10 12 19 -15 37 -64 44 -74 10 -94 30 -99 106 -4 49 -2 62 9 58 8 -3 13
-22 14 -51z m1201 37 c-3 -9 -6 -33 -6 -55 0 -51 -24 -74 -91 -88 -55 -12 -71
-24 -62 -48 4 -9 27 -13 84 -13 l78 0 17 35 c18 38 58 65 96 65 18 -1 13 -6
-22 -23 -36 -18 -48 -30 -59 -63 -13 -38 -13 -44 5 -75 11 -19 34 -43 52 -54
24 -15 30 -25 26 -40 -3 -11 -8 -54 -11 -95 -5 -95 -17 -131 -51 -161 l-27
-24 22 25 c34 39 43 74 43 167 l0 85 -39 38 c-21 21 -42 52 -46 69 l-7 31 -74
0 c-82 0 -114 11 -114 39 0 27 30 48 80 54 60 8 90 42 90 103 0 25 5 44 11 44
6 0 8 -7 5 -16z m389 -12 c-3 -3 -11 0 -18 7 -9 10 -8 11 6 5 10 -3 15 -9 12
-12z m192 -60 c-15 -15 -27 -37 -27 -48 -1 -22 -27 -60 -36 -51 -13 13 8 61
41 94 40 40 60 45 22 5z m83 24 c0 -2 -19 -15 -42 -30 l-43 -27 35 30 c32 27
50 38 50 27z m54 -53 c7 3 13 -1 13 -9 0 -8 -4 -14 -9 -14 -5 0 -7 -4 -4 -9 9
-13 -69 -91 -90 -90 -13 0 -10 5 13 15 45 19 55 39 16 31 l-30 -6 34 34 c18
18 34 44 34 57 1 18 2 19 6 5 3 -10 10 -16 17 -14z m-445 -20 c74 -90 4 -235
-112 -232 -28 0 -26 2 18 14 32 8 59 24 78 45 26 29 29 38 25 86 -3 37 -12 63
-32 88 -36 48 -16 46 23 -1z m205 -3 c25 -25 13 -37 -19 -20 -20 11 -28 10
-50 -4 -15 -10 -25 -26 -25 -41 0 -18 -4 -23 -15 -19 -23 9 -19 70 6 95 25 25
72 20 103 -11z m-2534 -35 c0 -5 -5 -3 -10 5 -5 8 -10 20 -10 25 0 6 5 3 10
-5 5 -8 10 -19 10 -25z m738 -27 c7 -7 12 -22 12 -35 0 -23 -1 -23 -25 -7 -20
13 -28 14 -40 4 -9 -7 -13 -21 -10 -31 7 -21 -5 -25 -23 -7 -16 16 -15 39 4
66 17 24 62 30 82 10z m1476 6 c9 -4 21 -14 26 -24 8 -16 6 -17 -25 -13 -30 4
-36 1 -45 -22 -5 -14 -14 -23 -20 -20 -15 10 -12 46 7 67 17 19 31 22 57 12z
m-385 -72 c20 -11 62 -27 94 -35 105 -28 167 -94 167 -180 0 -55 -20 -101 -53
-118 -18 -10 -17 -6 8 20 25 27 30 41 30 79 -1 72 -11 101 -47 132 -36 32 -46
37 -156 71 -72 23 -112 55 -112 91 0 7 8 1 17 -14 9 -14 33 -35 52 -46z m-709
29 c-15 -30 -49 -50 -110 -68 -84 -24 -125 -48 -159 -94 -53 -73 -51 -144 7
-190 25 -19 25 -19 47 1 27 26 69 26 95 0 27 -27 18 -40 -23 -33 -40 6 -62
-15 -55 -52 6 -28 1 -30 -24 -11 -10 7 -18 25 -18 40 0 19 -7 29 -25 36 -14 5
-34 24 -45 42 -40 66 -16 157 57 217 36 30 49 35 139 60 23 6 58 24 79 41 44
35 49 37 35 11z m-1086 -17 c3 -8 2 -12 -4 -9 -6 3 -10 10 -10 16 0 14 7 11
14 -7z m376 -76 c7 -18 22 -43 33 -55 25 -28 18 -30 -11 -4 -19 16 -52 78 -52
96 0 15 19 -8 30 -37z m1301 -1 c11 -19 9 -20 -20 -14 -27 6 -33 3 -43 -18
-13 -29 -23 -32 -32 -9 -9 24 -7 33 13 53 23 23 67 17 82 -12z m-1621 -27 c6
-11 8 -20 6 -20 -3 0 -10 9 -16 20 -6 11 -8 20 -6 20 3 0 10 -9 16 -20z m2500
-31 c-26 -55 -45 -78 -90 -108 -28 -19 -26 -16 10 17 25 22 56 63 69 91 14 28
26 49 28 47 2 -2 -5 -23 -17 -47z m-1952 -15 c23 -16 30 -54 10 -54 -6 0 -20
7 -30 17 -17 15 -19 15 -38 -2 -11 -10 -20 -29 -20 -42 0 -33 -19 -29 -32 8
-6 17 -21 34 -34 39 -13 5 -24 14 -24 20 0 6 12 3 27 -7 20 -13 28 -14 31 -5
13 41 69 55 110 26z m1712 -6 c21 -23 27 -48 10 -48 -5 0 -10 4 -10 9 0 16
-38 23 -59 11 -12 -6 -27 -22 -35 -37 l-13 -27 -12 22 c-9 17 -8 28 4 51 23
45 82 54 115 19z m-502 -57 c16 -20 15 -67 -3 -116 l-14 -40 5 70 c6 68 5 71
-25 99 -17 17 -31 34 -31 40 0 9 42 -24 68 -53z m762 43 c0 -15 -91 -111 -121
-128 -29 -16 -25 -10 25 41 32 34 63 68 68 77 9 16 28 22 28 10z m-967 -45
c-17 -17 -37 -1 -22 17 8 10 15 12 23 4 7 -7 7 -13 -1 -21z m284 -5 c-17 -18
-33 2 -17 21 10 12 15 13 21 4 4 -7 2 -18 -4 -25z m-652 17 c3 -5 1 -13 -5
-16 -15 -9 -43 3 -35 15 8 13 32 13 40 1z m-116 -34 c-19 -13 -36 -22 -39 -20
-8 7 41 43 58 43 8 0 0 -10 -19 -23z m-633 -18 c8 -14 -10 -11 -32 6 -18 13
-18 14 4 8 12 -3 25 -9 28 -14z m1481 -11 c-3 -8 -6 -5 -6 6 -1 11 2 17 5 13
3 -3 4 -12 1 -19z m-7 -22 c0 -3 -4 -8 -10 -11 -5 -3 -10 -1 -10 4 0 6 5 11
10 11 6 0 10 -2 10 -4z m-730 -40 c0 -20 -19 -31 -32 -18 -6 6 -7 15 -4 21 10
16 36 13 36 -3z m385 -7 c0 -7 -8 -15 -17 -17 -18 -3 -25 18 -11 32 10 10 28
1 28 -15z m327 4 c31 -37 30 -42 -7 -31 -39 12 -61 1 -76 -39 -13 -34 -29 -28
-29 12 0 62 75 101 112 58z m-741 -176 c-6 -15 -15 -27 -21 -27 -7 0 -5 9 4
22 10 14 17 48 18 88 l2 65 3 -61 c2 -33 -1 -72 -6 -87z m1074 90 c-9 -20 -32
-51 -51 -71 -19 -19 -30 -37 -26 -40 4 -2 25 18 47 44 45 55 63 64 41 21 -30
-57 -141 -137 -216 -155 -14 -3 -6 3 17 13 58 27 114 66 106 74 -3 4 -20 -2
-37 -12 -17 -10 -42 -22 -56 -25 -15 -4 -10 1 14 13 62 33 121 86 146 135 28
52 40 54 15 3z m-678 -44 c-2 -16 -4 -5 -4 22 0 28 2 40 4 28 2 -13 2 -35 0
-50z m-472 44 c21 -16 12 -39 -12 -30 -9 4 -19 -1 -25 -10 -13 -25 -28 -21
-28 8 0 13 8 29 18 34 22 14 25 13 47 -2z m622 -14 c3 -7 -3 -9 -16 -6 -14 3
-23 -3 -34 -23 l-14 -28 -12 23 c-10 17 -10 26 0 37 14 17 70 15 76 -3z m62
-60 c-12 -33 -38 -63 -53 -63 -6 0 -3 5 7 11 11 6 25 26 33 45 17 40 28 46 13
7z m-897 0 c10 -9 18 -22 18 -30 0 -16 -5 -16 -29 -1 -27 16 -71 -13 -71 -47
0 -25 -14 -33 -25 -15 -10 16 -6 102 5 95 3 -2 12 0 20 6 23 14 62 11 82 -8z
m1079 -3 c26 -21 22 -23 -29 -20 -26 1 -35 -4 -50 -29 -21 -37 -38 -35 -35 5
4 57 69 82 114 44z m-767 -94 c-20 -20 -44 -36 -52 -36 -8 0 4 14 27 30 23 17
45 38 48 47 4 10 8 12 10 6 2 -6 -13 -27 -33 -47z m715 -72 c-21 -25 -108 -65
-161 -73 -64 -11 -49 2 22 18 30 6 75 25 100 41 53 34 57 35 39 14z m-812
-320 c-3 -3 -12 -4 -19 -1 -8 3 -5 6 6 6 11 1 17 -2 13 -5z m66 -11 c-7 -2
-21 -2 -30 0 -10 3 -4 5 12 5 17 0 24 -2 18 -5z m-148 -82 c91 -25 63 -26 -35
-2 -41 11 -66 19 -55 20 11 0 52 -8 90 -18z m400 -51 c0 -32 -2 -35 -34 -38
-38 -4 -51 9 -51 51 0 27 2 28 43 25 41 -3 42 -4 42 -38z m-282 23 c-7 -2 -21
-2 -30 0 -10 3 -4 5 12 5 17 0 24 -2 18 -5z m80 -10 c-7 -2 -21 -2 -30 0 -10
3 -4 5 12 5 17 0 24 -2 18 -5z"/>
<path d="M2190 3684 c0 -3 18 -26 39 -51 70 -79 71 -86 71 -547 0 -404 0 -411
21 -424 l20 -13 -3 428 -3 428 -27 57 c-26 55 -63 99 -100 119 -10 5 -18 7
-18 3z"/>
<path d="M2718 3665 c-52 -35 -89 -116 -98 -213 -4 -42 -8 -241 -9 -441 l-3
-364 23 15 23 15 -2 399 c-4 456 -2 466 74 559 49 61 47 68 -8 30z"/>
<path d="M2620 1333 c0 -6 21 -23 46 -38 35 -21 49 -24 57 -15 9 9 8 11 -3 9
-17 -3 -81 28 -92 45 -6 8 -8 8 -8 -1z"/>
<path d="M1777 3433 c-12 -11 -8 -23 8 -23 8 0 15 7 15 15 0 16 -12 20 -23 8z"/>
<path d="M1742 2960 c-10 -17 -10 -20 3 -20 8 0 15 2 15 4 0 2 3 11 6 20 9 23
-9 20 -24 -4z"/>
<path d="M1355 2651 c-8 -15 3 -31 21 -31 9 0 14 7 12 17 -4 20 -24 28 -33 14z"/>
<path d="M2835 3080 c-9 -15 4 -30 26 -30 12 0 19 7 19 20 0 21 -33 29 -45 10z"/>
<path d="M2107 3274 c-14 -14 -7 -25 13 -22 12 2 21 8 21 13 0 12 -24 18 -34
9z"/>
<path d="M1625 2770 c-4 -7 -3 -16 3 -22 14 -14 45 -2 40 15 -6 16 -34 21 -43
7z"/>
<path d="M1844 2769 c-9 -16 18 -30 33 -17 7 6 10 14 7 19 -7 13 -31 11 -40
-2z"/>
<path d="M3780 2100 c0 -5 0 -12 0 -15 0 -12 14 -4 16 10 1 8 -2 15 -7 15 -5
0 -9 -4 -9 -10z"/>
<path d="M4283 1760 c-23 -86 -216 -376 -344 -518 -332 -363 -746 -578 -1244
-646 l-100 -14 70 -1 c161 -3 339 35 537 115 443 177 798 488 1011 884 52 97
90 190 82 198 -3 4 -9 -5 -12 -18z"/>
</g>
</svg>
